<svg width="500" height="500" viewBox="0 0 500 500" fill="none" xmlns="http://www.w3.org/2000/svg">
<path d="M451.939 289.78C453.246 283.271 455.391 276.958 458.319 271C466.319 254.62 472.069 240.29 466.979 222C454.509 177.33 403.789 172.11 378.769 138.42C340.089 86.3598 245.049 81.8398 199.649 126.83C185.729 140.62 179.209 160.1 165.139 173.74C144.409 193.85 113.629 196.44 92.3395 216.49C57.6295 249.2 54.2595 304.63 85.0695 341.41C117.609 380.25 163.539 373.88 208.149 365.62C230.099 361.56 252.919 357.16 275.289 360.28C322.999 367 379.609 393.21 425.849 367.12C450.479 353.22 451.109 331.54 450.539 306.25C450.4 300.725 450.87 295.202 451.939 289.78Z" fill="#D5D4F9"/>
<path opacity="0.6" d="M451.939 289.78C453.246 283.271 455.391 276.958 458.319 271C466.319 254.62 472.069 240.29 466.979 222C454.509 177.33 403.789 172.11 378.769 138.42C340.089 86.3598 245.049 81.8398 199.649 126.83C185.729 140.62 179.209 160.1 165.139 173.74C144.409 193.85 113.629 196.44 92.3395 216.49C57.6295 249.2 54.2595 304.63 85.0695 341.41C117.609 380.25 163.539 373.88 208.149 365.62C230.099 361.56 252.919 357.16 275.289 360.28C322.999 367 379.609 393.21 425.849 367.12C450.479 353.22 451.109 331.54 450.539 306.25C450.4 300.725 450.87 295.202 451.939 289.78Z" fill="white"/>
<path d="M257.5 426C363.263 426 449 407.868 449 385.5C449 363.132 363.263 345 257.5 345C151.737 345 66 363.132 66 385.5C66 407.868 151.737 426 257.5 426Z" fill="#D5D4F9"/>
<path opacity="0.3" d="M257.5 426C363.263 426 449 407.868 449 385.5C449 363.132 363.263 345 257.5 345C151.737 345 66 363.132 66 385.5C66 407.868 151.737 426 257.5 426Z" fill="white"/>
<path d="M39.0499 114.14C38.8166 113.296 38.7634 112.413 38.8939 111.547C39.0243 110.682 39.3354 109.853 39.807 109.116C40.2785 108.378 40.9 107.748 41.631 107.266C42.362 106.785 43.1861 106.462 44.0499 106.32C49.2799 105.61 55.6999 112.63 57.7399 116.88C57.9099 117.25 59.9999 123.31 59.8999 123.31C59.7999 123.31 50.6299 123.52 46.8999 121.86C43.6299 120.45 39.9199 117.76 39.0499 114.14ZM173.37 97.9999C172.6 101.64 168.96 104.43 165.78 105.93C162.6 107.43 155.05 107.69 153.2 107.72C152.2 108.91 151.13 110.2 149.98 111.64C147.98 114.2 145.76 117.11 143.56 120.43C142.97 121.32 142.37 122.29 141.77 123.23C143.11 121.86 144.96 120.01 145.16 119.85C148.85 116.92 157.69 113.41 162.08 116.33C162.796 116.834 163.399 117.483 163.848 118.235C164.297 118.987 164.582 119.825 164.686 120.695C164.79 121.564 164.709 122.446 164.45 123.283C164.19 124.119 163.758 124.892 163.18 125.55C160.81 128.43 156.3 129.23 152.78 129.09C149.26 128.95 142.23 125.6 140.73 124.85C139.44 126.94 138.16 129.12 136.96 131.47C134.726 135.706 132.875 140.134 131.43 144.7L131.7 144.83C132.77 143.42 135.1 140.51 135.32 140.3C138.66 136.97 147.07 132.52 151.76 134.93C152.519 135.355 153.18 135.934 153.702 136.629C154.224 137.325 154.596 138.121 154.792 138.968C154.989 139.815 155.007 140.694 154.845 141.549C154.682 142.403 154.344 143.214 153.85 143.93C151.85 147.06 147.42 148.35 143.91 148.59C139.91 148.88 131.5 145.72 131.18 145.59C129.882 150.164 128.88 154.817 128.18 159.52C127.64 163 127.23 166.52 126.85 170.11C127.58 169.11 130.64 165.28 130.85 165.03C134.19 161.71 142.6 157.25 147.28 159.67C148.048 160.093 148.718 160.672 149.247 161.371C149.776 162.07 150.152 162.872 150.35 163.726C150.548 164.58 150.564 165.466 150.397 166.326C150.23 167.187 149.883 168.002 149.38 168.72C147.38 171.84 142.95 173.13 139.44 173.37C135.49 173.65 127.44 170.66 126.78 170.37C126.61 171.99 126.44 173.6 126.28 175.23C125.76 180.52 125.28 185.84 124.62 191.07C124.39 192.88 124.11 194.66 123.83 196.44C124.97 194.96 127.09 192.31 127.3 192.1C130.64 188.78 139.05 184.32 143.74 186.74C144.5 187.164 145.162 187.742 145.685 188.437C146.208 189.133 146.58 189.93 146.777 190.777C146.974 191.625 146.991 192.504 146.828 193.359C146.665 194.213 146.325 195.025 145.83 195.74C143.83 198.86 139.4 200.15 135.89 200.4C132.38 200.65 125.56 198.28 123.65 197.58C123.16 200.58 122.65 203.47 121.93 206.32C121.61 207.55 121.37 208.82 120.99 209.98L119.99 213.47C119.19 215.83 118.46 218.02 117.66 220.2C117.26 221.3 116.87 222.33 116.47 223.4C117.4 221.72 118.92 219.1 119.08 218.87C121.88 215.08 129.51 209.41 134.51 211.09C135.333 211.39 136.084 211.86 136.713 212.47C137.343 213.08 137.836 213.815 138.162 214.629C138.487 215.442 138.638 216.315 138.603 217.191C138.568 218.066 138.349 218.925 137.96 219.71C136.42 223.11 132.27 225.05 128.83 225.82C125.05 226.68 116.93 225.03 115.94 224.82C114.94 227.43 113.94 229.95 113 232.3C110 239.73 107.15 245.81 105.12 250.04L104.79 250.72H119.58L114.47 350.32C114.33 354.002 112.766 357.486 110.108 360.038C107.45 362.59 103.905 364.01 100.22 364C96.5707 364.002 93.0602 362.602 90.4137 360.09C87.7672 357.577 86.1871 354.144 85.9999 350.5L80.8899 250.9H96.7699C96.6899 250.21 96.6099 249.48 96.5199 248.66C95.9899 244.06 95.1299 237.48 93.7499 229.66C93.3599 227.4 92.9099 225.01 92.4099 222.56C91.4099 222.69 83.1899 223.73 79.4799 222.56C76.1199 221.56 72.1199 219.28 70.8399 215.78C70.5118 214.968 70.3583 214.096 70.3894 213.221C70.4205 212.346 70.6354 211.487 71.0203 210.7C71.4051 209.914 71.9512 209.217 72.6231 208.655C73.2949 208.093 74.0775 207.679 74.9199 207.44C80.0299 206.13 87.2199 212.37 89.7299 216.35C89.8899 216.61 91.4399 219.84 92.1999 221.51C91.8999 220.03 91.6099 218.56 91.2699 217.02C90.7899 214.81 90.2699 212.49 89.6799 210.23C89.3599 209.07 89.0299 207.9 88.6799 206.72C88.3299 205.54 87.9299 204.42 87.5599 203.24C86.9799 201.54 86.2899 199.81 85.5599 198.08C83.3399 198.7 76.7799 200.39 73.4099 199.9C70.0399 199.41 65.6299 197.78 63.8399 194.52C63.3912 193.767 63.1063 192.927 63.0037 192.057C62.9012 191.186 62.9832 190.303 63.2446 189.467C63.5059 188.63 63.9407 187.857 64.5205 187.2C65.1004 186.542 65.8123 186.014 66.6099 185.65C71.4599 183.58 79.5099 188.65 82.6099 192.22C82.7099 192.33 83.2899 193.15 83.9599 194.13C83.2399 192.47 82.5299 190.8 81.7499 189.13C79.5299 184.41 77.1199 179.66 74.7499 174.9C74.2499 173.9 73.7499 172.9 73.2699 171.9C71.3999 172.43 64.2699 174.33 60.7799 173.82C57.2899 173.31 52.9999 171.7 51.2099 168.43C50.7687 167.677 50.4904 166.84 50.3928 165.973C50.2953 165.105 50.3808 164.227 50.6437 163.395C50.9066 162.563 51.3412 161.795 51.9193 161.142C52.4974 160.488 53.2062 159.963 53.9999 159.6C58.8499 157.54 66.8999 162.6 69.9999 166.18C70.1099 166.3 70.7999 167.28 71.5499 168.39C70.2899 165.78 69.0599 163.17 67.9199 160.53C65.9512 156.025 64.2809 151.395 62.9199 146.67C62.2699 146.86 53.9999 149.26 50.0699 148.67C46.5899 148.17 42.2999 146.55 40.5099 143.29C40.0609 142.537 39.7755 141.699 39.6722 140.828C39.5689 139.958 39.6501 139.076 39.9105 138.239C40.1709 137.402 40.6046 136.63 41.1834 135.972C41.7622 135.314 42.4732 134.785 43.2699 134.42C48.1299 132.36 56.1799 137.42 59.2699 140.99C59.4899 141.25 61.9299 144.81 62.7599 146.12C62.7555 146.063 62.7555 146.007 62.7599 145.95C61.5368 141.274 60.7336 136.499 60.3599 131.68C59.9923 127.38 59.8721 123.063 59.9999 118.75C60.0999 114.75 60.4299 111.09 60.7499 107.86C60.9399 106.11 61.1399 104.51 61.3499 103.02L61.2599 103.08C61.1699 103.14 59.4099 96.9799 59.3399 96.5799C58.5599 91.9299 59.7999 82.4999 64.4799 80.0699C65.2697 79.6893 66.1308 79.4791 67.0071 79.453C67.8835 79.4268 68.7555 79.5854 69.5666 79.9183C70.3777 80.2512 71.1096 80.7511 71.7149 81.3854C72.3202 82.0196 72.7853 82.7742 73.0799 83.5999C74.4399 87.0699 72.9399 91.3999 71.0799 94.4099C69.2199 97.4199 63.0799 101.79 61.5799 102.84C61.3999 104.39 61.2199 106.05 61.0599 107.84C60.8099 111.07 60.5599 114.72 60.5499 118.71C60.5499 119.78 60.5499 120.92 60.5999 122.03C60.9599 120.15 61.4899 117.59 61.5999 117.34C63.0499 112.86 68.4899 105.06 73.7699 105.07C74.6457 105.095 75.5063 105.305 76.2958 105.685C77.0852 106.065 77.7857 106.607 78.3517 107.276C78.9177 107.945 79.3365 108.726 79.5809 109.567C79.8252 110.409 79.8896 111.292 79.7699 112.16C79.3899 115.87 76.0599 119.02 73.0499 120.85C70.0399 122.68 62.2899 123.81 60.6299 124C60.7099 126.46 60.8399 129 61.1399 131.6C61.6142 136.363 62.5111 141.075 63.8199 145.68H64.1199C64.2399 143.91 64.5799 140.2 64.6399 139.89C65.6399 135.28 70.1399 126.89 75.3899 126.36C76.2632 126.289 77.1415 126.404 77.9678 126.695C78.794 126.986 79.5496 127.449 80.1854 128.051C80.8212 128.654 81.323 129.384 81.658 130.194C81.993 131.003 82.1538 131.874 82.1299 132.75C82.1299 136.47 79.1999 139.98 76.4099 142.12C73.1899 144.59 64.4699 146.57 64.1399 146.64C65.5644 151.181 67.2847 155.624 69.2899 159.94C70.7599 163.14 72.3699 166.33 74.0199 169.51C74.0799 168.26 74.5199 163.39 74.5899 163.04C75.5899 158.43 80.0899 150.04 85.3399 149.5C86.2128 149.431 87.0905 149.546 87.916 149.838C88.7416 150.13 89.4966 150.592 90.132 151.195C90.7675 151.797 91.2692 152.527 91.6048 153.335C91.9404 154.144 92.1022 155.015 92.0799 155.89C92.0799 159.62 89.1399 163.12 86.3499 165.26C83.2099 167.67 74.8699 169.61 74.1599 169.77C74.9099 171.21 75.6599 172.66 76.4199 174.1C78.9099 178.81 81.4199 183.51 83.7799 188.23C84.5899 189.87 85.3299 191.51 86.0799 193.15C86.2099 191.28 86.5299 187.9 86.5799 187.61C87.5799 183 92.0899 174.61 97.3299 174.07C98.2032 173.999 99.0815 174.114 99.9078 174.405C100.734 174.696 101.49 175.159 102.125 175.761C102.761 176.364 103.263 177.094 103.598 177.904C103.933 178.713 104.094 179.584 104.07 180.46C104.07 184.19 101.14 187.69 98.3499 189.83C95.5599 191.97 88.5599 193.76 86.5899 194.24C87.8199 197 88.9999 199.7 89.9999 202.46C90.4099 203.66 90.8999 204.85 91.2299 206.02L92.2899 209.51C92.9199 211.92 93.5199 214.15 94.0599 216.41C94.3399 217.55 94.5699 218.63 94.8299 219.73C94.6799 217.83 94.4999 214.8 94.5099 214.52C94.7599 209.82 97.9899 200.87 103.09 199.52C103.943 199.318 104.829 199.298 105.69 199.461C106.551 199.624 107.368 199.967 108.088 200.467C108.808 200.967 109.414 201.613 109.868 202.363C110.321 203.113 110.611 203.95 110.72 204.82C110.79 205.276 110.82 205.738 110.81 206.2C112.863 209.796 113.962 213.859 114 218C114 218.3 113.51 221.85 113.22 223.66C113.79 222.26 114.35 220.87 114.91 219.41C115.74 217.3 116.54 215.05 117.34 212.87L118.46 209.4C118.86 208.23 119.1 207.07 119.46 205.88C119.92 204.14 120.3 202.31 120.68 200.5C118.49 199.78 112.08 197.58 109.54 195.31C107 193.04 104.23 189.25 104.54 185.54C104.583 184.665 104.809 183.809 105.204 183.027C105.599 182.246 106.154 181.556 106.833 181.002C107.512 180.449 108.3 180.044 109.145 179.814C109.99 179.585 110.874 179.536 111.74 179.67C116.93 180.67 120.85 189.3 121.45 193.97C121.45 194.12 121.5 195.12 121.52 196.31C121.84 194.53 122.17 192.74 122.43 190.92C123.19 185.76 123.79 180.47 124.43 175.18C124.56 174.07 124.71 172.97 124.84 171.87C122.99 171.28 116.03 168.96 113.37 166.58C110.71 164.2 108.06 160.52 108.37 156.81C108.41 155.934 108.634 155.076 109.028 154.293C109.422 153.51 109.977 152.818 110.657 152.264C111.336 151.71 112.125 151.306 112.972 151.078C113.819 150.849 114.704 150.803 115.57 150.94C120.76 151.94 124.67 160.57 125.28 165.24C125.28 165.4 125.28 166.6 125.35 167.94C125.73 165.06 126.15 162.21 126.66 159.38C127.49 154.514 128.649 149.709 130.13 145C129.47 144.8 121.26 142.24 118.3 139.6C115.67 137.25 112.98 133.54 113.3 129.83C113.34 128.954 113.564 128.096 113.958 127.313C114.352 126.53 114.907 125.838 115.587 125.284C116.266 124.73 117.055 124.326 117.902 124.098C118.749 123.869 119.634 123.823 120.5 123.96C125.68 124.96 129.6 133.59 130.21 138.26C130.21 138.59 130.32 142.91 130.29 144.46C130.29 144.4 130.29 144.34 130.34 144.29C131.902 139.715 133.867 135.288 136.21 131.06C138.291 127.264 140.588 123.592 143.09 120.06C145.38 116.77 147.67 113.91 149.73 111.39C150.85 110.03 151.9 108.81 152.89 107.68H152.78C152.68 107.68 154.61 101.56 154.78 101.19C156.7 96.8899 162.93 89.6999 168.17 90.2599C169.043 90.3789 169.88 90.6812 170.628 91.1471C171.375 91.613 172.016 92.2318 172.507 92.963C172.998 93.6941 173.329 94.5209 173.478 95.3891C173.626 96.2572 173.59 97.147 173.37 97.9999ZM112.88 224.6C111.98 224.17 105.07 220.75 102.37 217.82C100.033 219.093 97.622 220.225 95.1499 221.21C95.7599 223.93 96.3399 226.58 96.8299 229.07C98.3899 236.95 99.3999 243.57 100.04 248.22C100.17 249.22 100.29 250.09 100.39 250.9H100.74L101.9 248.65C103.99 244.52 106.9 238.56 110.08 231.26C111 229.16 111.94 226.92 112.88 224.6ZM140.52 123.9C140.6 123.9 142.2 117.75 142.26 117.34C142.91 112.68 141.42 103.28 136.67 100.98C135.87 100.621 135.003 100.435 134.126 100.433C133.249 100.431 132.381 100.614 131.579 100.97C130.778 101.325 130.06 101.846 129.472 102.497C128.885 103.148 128.441 103.916 128.17 104.75C126.9 108.25 128.52 112.54 130.43 115.49C132.67 119 140.51 123.9 140.52 123.9Z" fill="#D5D4F9"/>
<path opacity="0.3" d="M39.0499 114.14C38.8166 113.296 38.7634 112.413 38.8939 111.547C39.0243 110.682 39.3354 109.853 39.807 109.116C40.2785 108.378 40.9 107.748 41.631 107.266C42.362 106.785 43.1861 106.462 44.0499 106.32C49.2799 105.61 55.6999 112.63 57.7399 116.88C57.9099 117.25 59.9999 123.31 59.8999 123.31C59.7999 123.31 50.6299 123.52 46.8999 121.86C43.6299 120.45 39.9199 117.76 39.0499 114.14ZM173.37 97.9999C172.6 101.64 168.96 104.43 165.78 105.93C162.6 107.43 155.05 107.69 153.2 107.72C152.2 108.91 151.13 110.2 149.98 111.64C147.98 114.2 145.76 117.11 143.56 120.43C142.97 121.32 142.37 122.29 141.77 123.23C143.11 121.86 144.96 120.01 145.16 119.85C148.85 116.92 157.69 113.41 162.08 116.33C162.796 116.834 163.399 117.483 163.848 118.235C164.297 118.987 164.582 119.825 164.686 120.695C164.79 121.564 164.709 122.446 164.45 123.283C164.19 124.119 163.758 124.892 163.18 125.55C160.81 128.43 156.3 129.23 152.78 129.09C149.26 128.95 142.23 125.6 140.73 124.85C139.44 126.94 138.16 129.12 136.96 131.47C134.726 135.706 132.875 140.134 131.43 144.7L131.7 144.83C132.77 143.42 135.1 140.51 135.32 140.3C138.66 136.97 147.07 132.52 151.76 134.93C152.519 135.355 153.18 135.934 153.702 136.629C154.224 137.325 154.596 138.121 154.792 138.968C154.989 139.815 155.007 140.694 154.845 141.549C154.682 142.403 154.344 143.214 153.85 143.93C151.85 147.06 147.42 148.35 143.91 148.59C139.91 148.88 131.5 145.72 131.18 145.59C129.882 150.164 128.88 154.817 128.18 159.52C127.64 163 127.23 166.52 126.85 170.11C127.58 169.11 130.64 165.28 130.85 165.03C134.19 161.71 142.6 157.25 147.28 159.67C148.048 160.093 148.718 160.672 149.247 161.371C149.776 162.07 150.152 162.872 150.35 163.726C150.548 164.58 150.564 165.466 150.397 166.326C150.23 167.187 149.883 168.002 149.38 168.72C147.38 171.84 142.95 173.13 139.44 173.37C135.49 173.65 127.44 170.66 126.78 170.37C126.61 171.99 126.44 173.6 126.28 175.23C125.76 180.52 125.28 185.84 124.62 191.07C124.39 192.88 124.11 194.66 123.83 196.44C124.97 194.96 127.09 192.31 127.3 192.1C130.64 188.78 139.05 184.32 143.74 186.74C144.5 187.164 145.162 187.742 145.685 188.437C146.208 189.133 146.58 189.93 146.777 190.777C146.974 191.625 146.991 192.504 146.828 193.359C146.665 194.213 146.325 195.025 145.83 195.74C143.83 198.86 139.4 200.15 135.89 200.4C132.38 200.65 125.56 198.28 123.65 197.58C123.16 200.58 122.65 203.47 121.93 206.32C121.61 207.55 121.37 208.82 120.99 209.98L119.99 213.47C119.19 215.83 118.46 218.02 117.66 220.2C117.26 221.3 116.87 222.33 116.47 223.4C117.4 221.72 118.92 219.1 119.08 218.87C121.88 215.08 129.51 209.41 134.51 211.09C135.333 211.39 136.084 211.86 136.713 212.47C137.343 213.08 137.836 213.815 138.162 214.629C138.487 215.442 138.638 216.315 138.603 217.191C138.568 218.066 138.349 218.925 137.96 219.71C136.42 223.11 132.27 225.05 128.83 225.82C125.05 226.68 116.93 225.03 115.94 224.82C114.94 227.43 113.94 229.95 113 232.3C110 239.73 107.15 245.81 105.12 250.04L104.79 250.72H119.58L114.47 350.32C114.33 354.002 112.766 357.486 110.108 360.038C107.45 362.59 103.905 364.01 100.22 364C96.5707 364.002 93.0602 362.602 90.4137 360.09C87.7672 357.577 86.1871 354.144 85.9999 350.5L80.8899 250.9H96.7699C96.6899 250.21 96.6099 249.48 96.5199 248.66C95.9899 244.06 95.1299 237.48 93.7499 229.66C93.3599 227.4 92.9099 225.01 92.4099 222.56C91.4099 222.69 83.1899 223.73 79.4799 222.56C76.1199 221.56 72.1199 219.28 70.8399 215.78C70.5118 214.968 70.3583 214.096 70.3894 213.221C70.4205 212.346 70.6354 211.487 71.0203 210.7C71.4051 209.914 71.9512 209.217 72.6231 208.655C73.2949 208.093 74.0775 207.679 74.9199 207.44C80.0299 206.13 87.2199 212.37 89.7299 216.35C89.8899 216.61 91.4399 219.84 92.1999 221.51C91.8999 220.03 91.6099 218.56 91.2699 217.02C90.7899 214.81 90.2699 212.49 89.6799 210.23C89.3599 209.07 89.0299 207.9 88.6799 206.72C88.3299 205.54 87.9299 204.42 87.5599 203.24C86.9799 201.54 86.2899 199.81 85.5599 198.08C83.3399 198.7 76.7799 200.39 73.4099 199.9C70.0399 199.41 65.6299 197.78 63.8399 194.52C63.3912 193.767 63.1063 192.927 63.0037 192.057C62.9012 191.186 62.9832 190.303 63.2446 189.467C63.5059 188.63 63.9407 187.857 64.5205 187.2C65.1004 186.542 65.8123 186.014 66.6099 185.65C71.4599 183.58 79.5099 188.65 82.6099 192.22C82.7099 192.33 83.2899 193.15 83.9599 194.13C83.2399 192.47 82.5299 190.8 81.7499 189.13C79.5299 184.41 77.1199 179.66 74.7499 174.9C74.2499 173.9 73.7499 172.9 73.2699 171.9C71.3999 172.43 64.2699 174.33 60.7799 173.82C57.2899 173.31 52.9999 171.7 51.2099 168.43C50.7687 167.677 50.4904 166.84 50.3928 165.973C50.2953 165.105 50.3808 164.227 50.6437 163.395C50.9066 162.563 51.3412 161.795 51.9193 161.142C52.4974 160.488 53.2062 159.963 53.9999 159.6C58.8499 157.54 66.8999 162.6 69.9999 166.18C70.1099 166.3 70.7999 167.28 71.5499 168.39C70.2899 165.78 69.0599 163.17 67.9199 160.53C65.9512 156.025 64.2809 151.395 62.9199 146.67C62.2699 146.86 53.9999 149.26 50.0699 148.67C46.5899 148.17 42.2999 146.55 40.5099 143.29C40.0609 142.537 39.7755 141.699 39.6722 140.828C39.5689 139.958 39.6501 139.076 39.9105 138.239C40.1709 137.402 40.6046 136.63 41.1834 135.972C41.7622 135.314 42.4732 134.785 43.2699 134.42C48.1299 132.36 56.1799 137.42 59.2699 140.99C59.4899 141.25 61.9299 144.81 62.7599 146.12C62.7555 146.063 62.7555 146.007 62.7599 145.95C61.5368 141.274 60.7336 136.499 60.3599 131.68C59.9923 127.38 59.8721 123.063 59.9999 118.75C60.0999 114.75 60.4299 111.09 60.7499 107.86C60.9399 106.11 61.1399 104.51 61.3499 103.02L61.2599 103.08C61.1699 103.14 59.4099 96.9799 59.3399 96.5799C58.5599 91.9299 59.7999 82.4999 64.4799 80.0699C65.2697 79.6893 66.1308 79.4791 67.0071 79.453C67.8835 79.4268 68.7555 79.5854 69.5666 79.9183C70.3777 80.2512 71.1096 80.7511 71.7149 81.3854C72.3202 82.0196 72.7853 82.7742 73.0799 83.5999C74.4399 87.0699 72.9399 91.3999 71.0799 94.4099C69.2199 97.4199 63.0799 101.79 61.5799 102.84C61.3999 104.39 61.2199 106.05 61.0599 107.84C60.8099 111.07 60.5599 114.72 60.5499 118.71C60.5499 119.78 60.5499 120.92 60.5999 122.03C60.9599 120.15 61.4899 117.59 61.5999 117.34C63.0499 112.86 68.4899 105.06 73.7699 105.07C74.6457 105.095 75.5063 105.305 76.2958 105.685C77.0852 106.065 77.7857 106.607 78.3517 107.276C78.9177 107.945 79.3365 108.726 79.5809 109.567C79.8252 110.409 79.8896 111.292 79.7699 112.16C79.3899 115.87 76.0599 119.02 73.0499 120.85C70.0399 122.68 62.2899 123.81 60.6299 124C60.7099 126.46 60.8399 129 61.1399 131.6C61.6142 136.363 62.5111 141.075 63.8199 145.68H64.1199C64.2399 143.91 64.5799 140.2 64.6399 139.89C65.6399 135.28 70.1399 126.89 75.3899 126.36C76.2632 126.289 77.1415 126.404 77.9678 126.695C78.794 126.986 79.5496 127.449 80.1854 128.051C80.8212 128.654 81.323 129.384 81.658 130.194C81.993 131.003 82.1538 131.874 82.1299 132.75C82.1299 136.47 79.1999 139.98 76.4099 142.12C73.1899 144.59 64.4699 146.57 64.1399 146.64C65.5644 151.181 67.2847 155.624 69.2899 159.94C70.7599 163.14 72.3699 166.33 74.0199 169.51C74.0799 168.26 74.5199 163.39 74.5899 163.04C75.5899 158.43 80.0899 150.04 85.3399 149.5C86.2128 149.431 87.0905 149.546 87.916 149.838C88.7416 150.13 89.4966 150.592 90.132 151.195C90.7675 151.797 91.2692 152.527 91.6048 153.335C91.9404 154.144 92.1022 155.015 92.0799 155.89C92.0799 159.62 89.1399 163.12 86.3499 165.26C83.2099 167.67 74.8699 169.61 74.1599 169.77C74.9099 171.21 75.6599 172.66 76.4199 174.1C78.9099 178.81 81.4199 183.51 83.7799 188.23C84.5899 189.87 85.3299 191.51 86.0799 193.15C86.2099 191.28 86.5299 187.9 86.5799 187.61C87.5799 183 92.0899 174.61 97.3299 174.07C98.2032 173.999 99.0815 174.114 99.9078 174.405C100.734 174.696 101.49 175.159 102.125 175.761C102.761 176.364 103.263 177.094 103.598 177.904C103.933 178.713 104.094 179.584 104.07 180.46C104.07 184.19 101.14 187.69 98.3499 189.83C95.5599 191.97 88.5599 193.76 86.5899 194.24C87.8199 197 88.9999 199.7 89.9999 202.46C90.4099 203.66 90.8999 204.85 91.2299 206.02L92.2899 209.51C92.9199 211.92 93.5199 214.15 94.0599 216.41C94.3399 217.55 94.5699 218.63 94.8299 219.73C94.6799 217.83 94.4999 214.8 94.5099 214.52C94.7599 209.82 97.9899 200.87 103.09 199.52C103.943 199.318 104.829 199.298 105.69 199.461C106.551 199.624 107.368 199.967 108.088 200.467C108.808 200.967 109.414 201.613 109.868 202.363C110.321 203.113 110.611 203.95 110.72 204.82C110.79 205.276 110.82 205.738 110.81 206.2C112.863 209.796 113.962 213.859 114 218C114 218.3 113.51 221.85 113.22 223.66C113.79 222.26 114.35 220.87 114.91 219.41C115.74 217.3 116.54 215.05 117.34 212.87L118.46 209.4C118.86 208.23 119.1 207.07 119.46 205.88C119.92 204.14 120.3 202.31 120.68 200.5C118.49 199.78 112.08 197.58 109.54 195.31C107 193.04 104.23 189.25 104.54 185.54C104.583 184.665 104.809 183.809 105.204 183.027C105.599 182.246 106.154 181.556 106.833 181.002C107.512 180.449 108.3 180.044 109.145 179.814C109.99 179.585 110.874 179.536 111.74 179.67C116.93 180.67 120.85 189.3 121.45 193.97C121.45 194.12 121.5 195.12 121.52 196.31C121.84 194.53 122.17 192.74 122.43 190.92C123.19 185.76 123.79 180.47 124.43 175.18C124.56 174.07 124.71 172.97 124.84 171.87C122.99 171.28 116.03 168.96 113.37 166.58C110.71 164.2 108.06 160.52 108.37 156.81C108.41 155.934 108.634 155.076 109.028 154.293C109.422 153.51 109.977 152.818 110.657 152.264C111.336 151.71 112.125 151.306 112.972 151.078C113.819 150.849 114.704 150.803 115.57 150.94C120.76 151.94 124.67 160.57 125.28 165.24C125.28 165.4 125.28 166.6 125.35 167.94C125.73 165.06 126.15 162.21 126.66 159.38C127.49 154.514 128.649 149.709 130.13 145C129.47 144.8 121.26 142.24 118.3 139.6C115.67 137.25 112.98 133.54 113.3 129.83C113.34 128.954 113.564 128.096 113.958 127.313C114.352 126.53 114.907 125.838 115.587 125.284C116.266 124.73 117.055 124.326 117.902 124.098C118.749 123.869 119.634 123.823 120.5 123.96C125.68 124.96 129.6 133.59 130.21 138.26C130.21 138.59 130.32 142.91 130.29 144.46C130.29 144.4 130.29 144.34 130.34 144.29C131.902 139.715 133.867 135.288 136.21 131.06C138.291 127.264 140.588 123.592 143.09 120.06C145.38 116.77 147.67 113.91 149.73 111.39C150.85 110.03 151.9 108.81 152.89 107.68H152.78C152.68 107.68 154.61 101.56 154.78 101.19C156.7 96.8899 162.93 89.6999 168.17 90.2599C169.043 90.3789 169.88 90.6812 170.628 91.1471C171.375 91.613 172.016 92.2318 172.507 92.963C172.998 93.6941 173.329 94.5209 173.478 95.3891C173.626 96.2572 173.59 97.147 173.37 97.9999ZM112.88 224.6C111.98 224.17 105.07 220.75 102.37 217.82C100.033 219.093 97.622 220.225 95.1499 221.21C95.7599 223.93 96.3399 226.58 96.8299 229.07C98.3899 236.95 99.3999 243.57 100.04 248.22C100.17 249.22 100.29 250.09 100.39 250.9H100.74L101.9 248.65C103.99 244.52 106.9 238.56 110.08 231.26C111 229.16 111.94 226.92 112.88 224.6ZM140.52 123.9C140.6 123.9 142.2 117.75 142.26 117.34C142.91 112.68 141.42 103.28 136.67 100.98C135.87 100.621 135.003 100.435 134.126 100.433C133.249 100.431 132.381 100.614 131.579 100.97C130.778 101.325 130.06 101.846 129.472 102.497C128.885 103.148 128.441 103.916 128.17 104.75C126.9 108.25 128.52 112.54 130.43 115.49C132.67 119 140.51 123.9 140.52 123.9Z" fill="white"/>
<path d="M423.611 159.26C423.611 159.26 413.831 166.74 412.481 172.5C411.131 178.26 412.871 184.39 414.021 188.04C415.171 191.69 415.361 209.34 404.621 217.2C393.881 225.06 389.081 232.93 390.231 242.72C391.381 252.51 405.961 263.25 418.051 265.72C430.141 268.19 447.211 262.65 453.921 248.26C460.631 233.87 451.621 218 446.631 209C441.641 200 442.031 191.54 447.631 191.16C453.231 190.78 456.071 192.16 456.271 184.25C456.471 176.34 454.541 164.11 444.371 157.97C434.201 151.83 423.611 159.26 423.611 159.26Z" fill="#625EC8" stroke="#625EC8" stroke-linecap="round" stroke-linejoin="round"/>
<path d="M399.531 255.76C400.531 256.43 409.531 260.1 416.191 249.76C422.851 239.42 413.781 229.89 415.531 220.76" stroke="white" stroke-width="0.5" stroke-miterlimit="10"/>
<path d="M434.551 171.16C434.551 171.16 431.431 161.08 438.191 164.35C445.441 167.85 451.191 184.35 448.691 188.1" stroke="white" stroke-width="0.5" stroke-miterlimit="10"/>
<path d="M432.691 169.85C432.691 169.85 428.941 162.6 431.441 159.35C433.941 156.1 439.691 159.85 442.691 162.1" stroke="white" stroke-width="0.5" stroke-miterlimit="10"/>
<path d="M441.19 189.6C441.19 189.6 442.19 194.1 439.19 203.1C436.19 212.1 430.69 222.35 436.19 231.85C441.69 241.35 445.94 247.85 439.69 257.35" stroke="white" stroke-width="0.5" stroke-miterlimit="10"/>
<path d="M441.19 194.85C441.407 200.711 440.988 206.579 439.94 212.35C438.19 222.35 443.69 228.85 449.44 235.1C455.19 241.35 453.69 246.6 451.69 252.35" stroke="white" stroke-width="0.5" stroke-miterlimit="10"/>
<path d="M432.441 171.35C432.441 171.35 420.691 172.35 417.191 170.85C413.691 169.35 414.441 168.1 414.441 168.1" stroke="white" stroke-width="0.5" stroke-miterlimit="10"/>
<path d="M434.001 211.29C434.001 211.29 435.531 226.83 437.491 235.82C439.451 244.81 442.571 256.16 441.791 259.29C441.011 262.42 423.791 289.01 423.791 289.01L418.711 285.49L429.271 253.81L420.381 224.11C420.381 224.11 428.521 212.18 434.001 211.29Z" fill="white" stroke="#625EC8" stroke-linecap="round" stroke-linejoin="round"/>
<path d="M432.631 208.76C430.131 205.88 424.761 198.4 424.761 198.4L416.321 188.4L404.621 172.29C403.081 170.18 397.901 170.94 382.941 171.14C367.981 171.34 322.571 162.7 322.571 162.7L321.041 172.7C321.041 172.7 362.601 181.7 373.151 182.7C383.701 183.7 393.491 185 393.491 185C392.05 187.871 390.768 190.819 389.651 193.83C388.501 197.28 375.071 215.7 375.071 215.7C375.071 215.7 374.741 215.9 374.171 216.28C374.021 219.62 374.341 226.71 379.331 230.45C383.191 233.34 388.841 234.56 392.921 235.07C392.991 234.84 393.051 234.64 393.101 234.5C393.681 232.96 397.901 230.66 400.201 230.5C402.501 230.34 409.601 230.69 413.831 230.31C418.061 229.93 420.351 224.17 420.351 224.17C420.351 224.17 429.671 215.07 433.961 211.35C433.695 210.407 433.243 209.526 432.631 208.76Z" fill="white" stroke="#625EC8" stroke-linecap="round" stroke-linejoin="round"/>
<path d="M398.8 187.32L393.49 184.97L397.35 191.11" stroke="#625EC8" stroke-width="0.75" stroke-linecap="round" stroke-linejoin="round"/>
<path d="M385.41 222.26C389.407 224.739 394.135 225.767 398.8 225.17" stroke="#625EC8" stroke-width="0.75" stroke-linecap="round" stroke-linejoin="round"/>
<path d="M381 215.271C381 215.271 381.87 218.771 387.41 221.101" stroke="#625EC8" stroke-width="0.75" stroke-linecap="round" stroke-linejoin="round"/>
<path d="M429.24 253.811C429.24 253.811 432.87 252.251 435.78 256.331" stroke="#625EC8" stroke-width="0.75" stroke-linecap="round" stroke-linejoin="round"/>
<path d="M430.252 226.63L420.352 224.11L429.082 231" stroke="#625EC8" stroke-width="0.75" stroke-linecap="round" stroke-linejoin="round"/>
<path d="M403.171 176C403.171 176 398.221 184.73 392.401 184.44C384.491 184.04 362.111 177.44 362.111 175.12C362.111 172.8 368.231 171.92 368.231 171.92" stroke="#625EC8" stroke-width="0.75" stroke-linecap="round" stroke-linejoin="round"/>
<path d="M420.351 183.24C420.351 183.24 416.351 182.24 413.441 184.01C410.531 185.78 402.891 202.43 402.891 202.43C402.891 202.43 403.461 203.2 405.771 203.2C408.081 203.2 408.651 206.27 408.651 209.14C408.651 212.01 408.451 213.36 409.411 213.14C410.371 212.92 416.131 210.84 417.281 211.61C418.431 212.38 415.741 216.21 416.281 216.61C416.821 217.01 421.651 212.19 423.191 207.01C424.731 201.83 426.261 194.16 425.871 191.09C425.481 188.02 423.001 184 420.351 183.24Z" fill="#D5D4F9" stroke="#625EC8" stroke-linecap="round" stroke-linejoin="round"/>
<path d="M423.611 199.17C421.498 201.527 419.258 203.767 416.901 205.88C412.481 209.88 408.841 212.79 409.031 210.88C409.221 208.97 413.631 198.6 414.781 192.88C415.931 187.16 418.051 183.28 420.351 183.28C422.651 183.28 427.641 195 423.611 199.17Z" fill="white" stroke="#625EC8" stroke-linecap="round" stroke-linejoin="round"/>
<path d="M421.311 174.42C421.465 174.887 421.715 175.317 422.046 175.68C422.377 176.044 422.781 176.334 423.231 176.53C424.571 176.91 434.551 171.16 434.551 171.16C434.551 171.16 441.651 186.31 440.491 188.61C439.331 190.91 435.891 193.8 432.051 196.48C428.211 199.16 421.121 201.28 418.431 199.74C415.741 198.2 417.661 182.48 417.661 182.48C417.661 182.48 415.551 179.98 417.851 175.95C420.151 171.92 421.311 174.42 421.311 174.42Z" fill="white" stroke="#625EC8" stroke-linecap="round" stroke-linejoin="round"/>
<path d="M437.381 190.07C437.381 190.07 437.551 188.88 435.331 188.88C433.111 188.88 429.211 192.96 429.211 192.96" stroke="#625EC8" stroke-width="0.75" stroke-linecap="round" stroke-linejoin="round"/>
<path d="M427.68 193.3L426.49 192.11" stroke="#625EC8" stroke-width="0.75" stroke-linecap="round" stroke-linejoin="round"/>
<path d="M426 195.52C426 195.52 422.94 195.01 422.43 191.09" stroke="#625EC8" stroke-width="0.75" stroke-linecap="round" stroke-linejoin="round"/>
<path d="M433.08 183.89C433.08 183.89 432.32 180.16 429.08 179.44" stroke="#625EC8" stroke-width="0.75" stroke-linecap="round" stroke-linejoin="round"/>
<path d="M429.231 185.89C428.451 186.5 427.591 186.7 427.301 186.33C427.011 185.96 427.401 185.17 428.171 184.56C428.941 183.95 429.811 183.75 430.101 184.12C430.391 184.49 430.001 185.28 429.231 185.89Z" fill="#625EC8"/>
<path d="M434.051 192.19C433.411 192.69 432.701 192.86 432.461 192.55C432.221 192.24 432.541 191.55 433.181 191.08C433.821 190.61 434.531 190.42 434.771 190.72C435.011 191.02 434.691 191.68 434.051 192.19Z" fill="#625EC8"/>
<path d="M415.38 355.47L425.19 369.1C425.19 369.1 425.19 371.6 421.69 371.6C418.19 371.6 416.19 371.6 414.19 369.1C412.19 366.6 412.19 365.1 410.19 364.1C408.19 363.1 406.19 363.1 407.19 357.6C408.19 352.1 415.38 355.47 415.38 355.47Z" fill="white" stroke="#625EC8" stroke-linecap="round" stroke-linejoin="round"/>
<path d="M425.151 369.41C423.597 370.156 421.854 370.414 420.151 370.15C416.611 369.51 414.461 365.97 413.151 364.45C411.841 362.93 410.241 362.94 408.731 361.67C408.012 361.056 407.386 360.342 406.871 359.55C406.661 363.11 408.391 363.23 410.111 364.1C412.111 365.1 412.111 366.6 414.111 369.1C416.111 371.6 418.111 371.6 421.611 371.6C424.421 371.6 425.001 370.08 425.151 369.41Z" fill="white" stroke="#625EC8" stroke-linecap="round" stroke-linejoin="round"/>
<path d="M414.821 353.74C412.821 347.74 409.971 311.82 408.491 300.45C405.491 277.33 392.151 247.32 392.151 247.32L392.921 235.04C388.841 234.53 383.191 233.31 379.331 230.42C374.331 226.68 374.021 219.59 374.171 216.25C371.641 217.88 364.171 222.79 357.801 227.95C349.941 234.28 344.561 256.73 343.031 263.82C341.501 270.91 339.771 291.82 339.771 291.82C339.771 291.82 325.951 297.19 320.391 304.82C314.831 312.45 297.941 329.76 297.941 329.76L299.481 335.52C299.481 335.52 304.661 331.88 309.071 328.42C313.481 324.96 347.831 305.78 350.131 304.42C352.431 303.06 355.131 300.42 358.191 292.72C359.311 289.91 360.891 285.31 362.451 280.6L367.781 264L372.911 259.63C377.971 273.31 389.731 299.68 391.401 303.45C393.401 307.97 394.921 328.07 400.451 340.64C405.981 353.21 407.451 359.24 407.451 359.24C407.451 359.24 416.831 359.77 414.821 353.74Z" fill="#625EC8" stroke="#625EC8" stroke-linecap="round" stroke-linejoin="round"/>
<path d="M392.59 237.41L394.5 248.56" stroke="white" stroke-width="0.5" stroke-miterlimit="10"/>
<path d="M122.181 151.29L93.3006 396.59C93.2615 396.943 93.3222 397.3 93.4759 397.621C93.6296 397.941 93.8701 398.212 94.1701 398.403C94.4701 398.594 94.8175 398.696 95.1729 398.699C95.5283 398.702 95.8774 398.606 96.1806 398.42L114.741 387C115.842 386.317 117.166 386.089 118.433 386.363C119.699 386.637 120.81 387.393 121.531 388.47L144.851 423.14L154.581 277.3L122.181 151.29Z" fill="#D5D4F9" stroke="#625EC8" stroke-linecap="round" stroke-linejoin="round"/>
<path d="M122.001 157.46L95.901 390.46C95.8446 390.963 95.9362 391.471 96.1645 391.923C96.3929 392.374 96.7481 392.749 97.1866 393.002C97.6251 393.255 98.1278 393.374 98.633 393.345C99.1382 393.316 99.6241 393.141 100.031 392.84L113.601 382.84C114.307 382.318 115.112 381.945 115.966 381.745C116.821 381.545 117.707 381.522 118.571 381.676C119.436 381.831 120.259 382.16 120.991 382.644C121.724 383.127 122.35 383.756 122.831 384.49L138.711 408.73C138.883 408.999 139.14 409.203 139.442 409.309C139.743 409.415 140.072 409.417 140.374 409.314C140.677 409.212 140.937 409.011 141.112 408.744C141.287 408.476 141.368 408.158 141.341 407.84L122.801 157.47C122.782 157.379 122.732 157.297 122.66 157.238C122.588 157.179 122.498 157.146 122.405 157.145C122.312 157.143 122.221 157.174 122.148 157.231C122.074 157.289 122.023 157.369 122.001 157.46Z" fill="#D5D4F9" stroke="#625EC8" stroke-linecap="round" stroke-linejoin="round"/>
<path opacity="0.6" d="M122.361 154.08L95.8814 390.44C95.825 390.943 95.9166 391.452 96.145 391.903C96.3734 392.355 96.7286 392.73 97.1671 392.983C97.6055 393.236 98.1082 393.355 98.6135 393.326C99.1187 393.297 99.6046 393.121 100.011 392.82L113.581 382.82C114.287 382.299 115.092 381.926 115.947 381.726C116.801 381.526 117.688 381.502 118.552 381.657C119.416 381.811 120.239 382.141 120.972 382.624C121.704 383.108 122.33 383.736 122.811 384.47L138.691 408.71C138.863 408.98 139.121 409.184 139.422 409.29C139.724 409.396 140.052 409.398 140.355 409.295C140.658 409.193 140.917 408.992 141.092 408.725C141.268 408.457 141.348 408.139 141.321 407.82L122.551 154.08C122.545 154.06 122.532 154.043 122.515 154.031C122.498 154.018 122.477 154.012 122.456 154.012C122.435 154.012 122.415 154.018 122.398 154.031C122.381 154.043 122.368 154.06 122.361 154.08Z" fill="#625EC8"/>
<path d="M117.531 381.54C118.582 381.558 119.612 381.833 120.532 382.34C121.453 382.847 122.235 383.572 122.811 384.45L138.691 408.69C138.863 408.959 139.121 409.163 139.422 409.269C139.724 409.375 140.052 409.377 140.355 409.275C140.658 409.172 140.917 408.971 141.092 408.704C141.268 408.437 141.348 408.119 141.321 407.8L139.051 377.16L117.191 381.44C117.308 381.463 117.421 381.496 117.531 381.54Z" fill="#D5D4F9" stroke="#625EC8" stroke-linecap="round" stroke-linejoin="round"/>
<path opacity="0.3" d="M117.531 381.54C118.582 381.558 119.612 381.833 120.532 382.34C121.453 382.847 122.235 383.572 122.811 384.45L138.691 408.69C138.863 408.959 139.121 409.163 139.422 409.269C139.724 409.375 140.052 409.377 140.355 409.275C140.658 409.172 140.917 408.971 141.092 408.704C141.268 408.437 141.348 408.119 141.321 407.8L139.051 377.16L117.191 381.44C117.308 381.463 117.421 381.496 117.531 381.54Z" fill="#625EC8"/>
<path d="M122.771 151.14L144.841 423.14L402.191 374.1L341.711 161.97L122.771 151.14Z" fill="#625EC8" stroke="#625EC8" stroke-linecap="round" stroke-linejoin="round"/>
<path d="M134.701 157.01L149.861 408.76L391.861 364.76L340.851 169.17L134.701 157.01Z" fill="#D5D4F9" stroke="#625EC8" stroke-linecap="round" stroke-linejoin="round"/>
<path d="M149.49 280.901L161 400.231L380.88 360.251L360.45 270.561L149.49 280.901Z" fill="white" stroke="#625EC8" stroke-linecap="round" stroke-linejoin="round"/>
<path d="M191.931 394.29L188.281 355.96" stroke="#625EC8" stroke-linecap="round" stroke-linejoin="round"/>
<path d="M225.581 388.36L222.061 356.41" stroke="#625EC8" stroke-linecap="round" stroke-linejoin="round"/>
<path d="M258.571 381.97L254.461 356.41" stroke="#625EC8" stroke-linecap="round" stroke-linejoin="round"/>
<path d="M292.56 376.14L287.67 345.67" stroke="#625EC8" stroke-linecap="round" stroke-linejoin="round"/>
<path d="M322.5 370.74L318.33 341" stroke="#625EC8" stroke-linecap="round" stroke-linejoin="round"/>
<path d="M351.21 365.43L345 329.67" stroke="#625EC8" stroke-linecap="round" stroke-linejoin="round"/>
<path d="M418.68 285.49C418.68 285.49 415.62 288.57 415.42 290.17C415.22 291.77 416.82 296.59 416.82 296.59L421.64 297.39L423.76 289.01L418.68 285.49Z" fill="white" stroke="#625EC8" stroke-linecap="round" stroke-linejoin="round"/>
<g style="mix-blend-mode:multiply" opacity="0.49">
<path d="M135.92 226.561C135.92 226.561 141 299.671 145.67 326.331C150.34 352.991 159 392.891 159 392.891C159 392.891 309 369.671 383 338.331L377 309.671L135.92 226.561Z" fill="#D5D4F9"/>
</g>
<path d="M129.141 154.271L339.811 165.62C339.811 165.62 360.321 227.07 380.731 261.77C401.141 296.47 434.801 294.21 434.801 294.21C434.801 294.21 357.601 336.421 297.471 358.891C234.891 382.261 180.621 386.46 180.621 386.46C180.621 386.46 131.191 318.941 129.141 154.271Z" fill="#D5D4F9" stroke="#625EC8" stroke-linecap="round" stroke-linejoin="round"/>
<path d="M153.261 143.33C149.351 143.33 146.521 146.8 145.631 152.24L149.631 152.46C150.251 149.32 151.481 147.33 153.251 147.33C155.311 147.33 157.601 150.64 157.601 155.4C157.601 160.16 155.311 163.48 153.251 163.48C152.72 163.48 152.212 163.691 151.837 164.066C151.462 164.441 151.251 164.95 151.251 165.48C151.251 166.011 151.462 166.519 151.837 166.894C152.212 167.269 152.72 167.48 153.251 167.48C157.931 167.48 161.601 162.17 161.601 155.4C161.601 148.63 157.941 143.33 153.261 143.33Z" fill="white" stroke="#625EC8" stroke-miterlimit="10"/>
<path d="M159 158.64C158.808 159.345 158.561 160.034 158.26 160.7" stroke="#625EC8" stroke-width="0.75" stroke-linecap="round" stroke-linejoin="round"/>
<path d="M147.611 150.44C147.611 150.44 149.111 145.02 153.541 145.32C157.021 145.56 159.891 150.73 159.411 156.26" stroke="#625EC8" stroke-width="0.75" stroke-linecap="round" stroke-linejoin="round"/>
<path d="M188.001 145.08C184.091 145.08 181.261 148.55 180.371 153.99L184.371 154.21C184.991 151.07 186.221 149.08 187.991 149.08C190.051 149.08 192.341 152.39 192.341 157.15C192.341 161.91 190.051 165.23 187.991 165.23C187.461 165.23 186.952 165.441 186.577 165.816C186.202 166.191 185.991 166.7 185.991 167.23C185.991 167.761 186.202 168.269 186.577 168.644C186.952 169.019 187.461 169.23 187.991 169.23C192.671 169.23 196.341 163.92 196.341 157.15C196.341 150.38 192.691 145.08 188.001 145.08Z" fill="white" stroke="#625EC8" stroke-miterlimit="10"/>
<path d="M193.75 160.39C193.558 161.095 193.311 161.784 193.01 162.45" stroke="#625EC8" stroke-width="0.75" stroke-linecap="round" stroke-linejoin="round"/>
<path d="M182.361 152.19C182.361 152.19 183.861 146.77 188.291 147.07C191.771 147.31 194.641 152.48 194.161 158.01" stroke="#625EC8" stroke-width="0.75" stroke-linecap="round" stroke-linejoin="round"/>
<path d="M222.761 146.83C218.851 146.83 216.021 150.3 215.131 155.74L219.131 155.96C219.751 152.82 220.981 150.83 222.751 150.83C224.811 150.83 227.101 154.14 227.101 158.9C227.101 163.66 224.811 166.98 222.751 166.98C222.22 166.98 221.712 167.191 221.337 167.566C220.962 167.941 220.751 168.45 220.751 168.98C220.751 169.511 220.962 170.019 221.337 170.394C221.712 170.769 222.22 170.98 222.751 170.98C227.431 170.98 231.101 165.67 231.101 158.9C231.101 152.13 227.441 146.83 222.761 146.83Z" fill="white" stroke="#625EC8" stroke-miterlimit="10"/>
<path d="M228.5 162.14C228.308 162.845 228.061 163.534 227.76 164.2" stroke="#625EC8" stroke-width="0.75" stroke-linecap="round" stroke-linejoin="round"/>
<path d="M217.111 153.94C217.111 153.94 218.611 148.52 223.041 148.82C226.521 149.06 229.391 154.23 228.911 159.76" stroke="#625EC8" stroke-width="0.75" stroke-linecap="round" stroke-linejoin="round"/>
<path d="M257.511 148.58C253.601 148.58 250.771 152.05 249.881 157.49L253.881 157.71C254.501 154.57 255.731 152.58 257.501 152.58C259.561 152.58 261.851 155.89 261.851 160.65C261.851 165.41 259.561 168.73 257.501 168.73C256.97 168.73 256.462 168.941 256.087 169.316C255.712 169.691 255.501 170.2 255.501 170.73C255.501 171.261 255.712 171.769 256.087 172.144C256.462 172.519 256.97 172.73 257.501 172.73C262.181 172.73 265.851 167.42 265.851 160.65C265.851 153.88 262.191 148.58 257.511 148.58Z" fill="white" stroke="#625EC8" stroke-miterlimit="10"/>
<path d="M263.25 163.89C263.058 164.595 262.811 165.284 262.51 165.95" stroke="#625EC8" stroke-width="0.75" stroke-linecap="round" stroke-linejoin="round"/>
<path d="M251.861 155.69C251.861 155.69 253.361 150.27 257.791 150.57C261.271 150.81 264.141 155.98 263.661 161.51" stroke="#625EC8" stroke-width="0.75" stroke-linecap="round" stroke-linejoin="round"/>
<path d="M292.892 150.13C288.982 150.13 286.151 153.6 285.271 159.05L289.271 159.27C289.901 156.13 291.132 154.13 292.892 154.13C294.952 154.13 297.251 157.45 297.251 162.21C297.251 166.97 294.952 170.28 292.892 170.28C292.361 170.28 291.852 170.491 291.477 170.866C291.102 171.241 290.892 171.749 290.892 172.28C290.892 172.81 291.102 173.319 291.477 173.694C291.852 174.069 292.361 174.28 292.892 174.28C297.582 174.28 301.251 168.98 301.251 162.21C301.251 155.44 297.582 150.13 292.892 150.13Z" fill="white" stroke="#625EC8" stroke-miterlimit="10"/>
<path d="M298.631 165.45C298.441 166.153 298.193 166.838 297.891 167.5" stroke="#625EC8" stroke-width="0.75" stroke-linecap="round" stroke-linejoin="round"/>
<path d="M287.24 157.25C287.24 157.25 288.75 151.82 293.17 152.12C296.66 152.36 299.52 157.54 299.05 163.07" stroke="#625EC8" stroke-width="0.75" stroke-linecap="round" stroke-linejoin="round"/>
<path d="M326.88 152C322.97 152 320.14 155.47 319.26 160.91L323.26 161.14C323.89 158 325.12 156 326.88 156C328.94 156 331.24 159.32 331.24 164.07C331.24 168.82 328.94 172.15 326.88 172.15C326.349 172.15 325.841 172.361 325.466 172.736C325.09 173.111 324.88 173.62 324.88 174.15C324.88 174.68 325.09 175.189 325.466 175.564C325.841 175.939 326.349 176.15 326.88 176.15C331.57 176.15 335.24 170.84 335.24 164.07C335.24 157.3 331.57 152 326.88 152Z" fill="white" stroke="#625EC8" stroke-miterlimit="10"/>
<path d="M332.621 167.26C332.433 167.966 332.185 168.655 331.881 169.32" stroke="#625EC8" stroke-width="0.75" stroke-linecap="round" stroke-linejoin="round"/>
<path d="M321.23 159.07C321.23 159.07 322.74 153.64 327.16 153.94C330.65 154.18 333.51 159.35 333.04 164.88" stroke="#625EC8" stroke-width="0.75" stroke-linecap="round" stroke-linejoin="round"/>
<path d="M423.761 289C423.761 289 425.761 291.74 425.761 292.91C425.761 294.08 423.021 296.04 423.021 298.77C423.021 301.5 419.501 300.77 419.111 298.77C418.721 296.77 419.891 294.08 419.891 294.08C419.891 294.08 418.261 293.08 417.891 289.56C417.521 286.04 420.691 287.04 420.691 287.04L423.761 289Z" fill="white" stroke="#625EC8" stroke-linecap="round" stroke-linejoin="round"/>
<path d="M373.761 261.93C359.271 237.29 344.051 198.38 338.641 184.06L150.371 176.43C150.251 315.58 192.371 373.07 192.371 373.07C192.371 373.07 240.321 369.36 295.621 348.7C348.761 328.85 412.141 295.53 412.141 295.53C412.141 295.53 391.791 292.6 373.761 261.93Z" fill="white" stroke="#625EC8" stroke-linecap="round" stroke-linejoin="round"/>
<path d="M338.641 184.06L150.371 176.43C150.371 190.12 150.761 203 151.481 215.13L350.301 213.27C345.151 201 341.001 190.25 338.641 184.06Z" fill="#625EC8" stroke="#625EC8" stroke-linecap="round" stroke-linejoin="round"/>
<path d="M341.971 225.54L350.871 225.23" stroke="#625EC8" stroke-width="3" stroke-linecap="round" stroke-linejoin="round"/>
<path d="M315.811 226.43L335.301 225.76" stroke="#625EC8" stroke-width="3" stroke-linecap="round" stroke-linejoin="round"/>
<path d="M284.141 227.5L309.191 226.65" stroke="#625EC8" stroke-width="3" stroke-linecap="round" stroke-linejoin="round"/>
<path d="M251.92 228.59L278.61 227.69" stroke="#625EC8" stroke-width="3" stroke-linecap="round" stroke-linejoin="round"/>
<path d="M220.771 229.65L245.241 228.82" stroke="#625EC8" stroke-width="3" stroke-linecap="round" stroke-linejoin="round"/>
<path d="M187.951 230.77L212.441 229.93" stroke="#625EC8" stroke-width="3" stroke-linecap="round" stroke-linejoin="round"/>
<path d="M159.061 231.75L181.851 230.97" stroke="#625EC8" stroke-width="3" stroke-linecap="round" stroke-linejoin="round"/>
<path d="M155.352 253.2L362.482 240.58" stroke="#625EC8" stroke-linecap="round" stroke-linejoin="round"/>
<path d="M188.08 251.42C188.08 251.42 191.48 306.5 227.79 367.64" stroke="#625EC8" stroke-linecap="round" stroke-linejoin="round"/>
<path d="M221.5 249.21C221.5 249.21 225.33 312.21 265.14 358.34" stroke="#625EC8" stroke-linecap="round" stroke-linejoin="round"/>
<path d="M251.76 247.35C251.76 247.35 253.76 305.35 298.51 347.03" stroke="#625EC8" stroke-linecap="round" stroke-linejoin="round"/>
<path d="M283.131 246C283.131 246 288.071 310.48 331.381 333.19" stroke="#625EC8" stroke-linecap="round" stroke-linejoin="round"/>
<path d="M316 243.41C316 243.41 319.48 292.18 363.78 318.89" stroke="#625EC8" stroke-linecap="round" stroke-linejoin="round"/>
<path d="M341.881 241.83C341.881 241.83 353.801 291.83 387.151 308.02" stroke="#625EC8" stroke-linecap="round" stroke-linejoin="round"/>
<path d="M159.891 281.61L371.451 258.34" stroke="#625EC8" stroke-linecap="round" stroke-linejoin="round"/>
<path d="M165.41 306.501C165.41 306.501 210.58 304.731 381.29 273.271" stroke="#625EC8" stroke-linecap="round" stroke-linejoin="round"/>
<path d="M173.381 332.85C173.381 332.85 217.381 337.85 389.761 282.96" stroke="#625EC8" stroke-linecap="round" stroke-linejoin="round"/>
<path d="M182.9 355.84C182.9 355.84 219.58 367.99 399.76 290.84" stroke="#625EC8" stroke-linecap="round" stroke-linejoin="round"/>
<path d="M231.692 203.651L163.872 202.741C163.322 202.732 162.794 202.525 162.386 202.157C161.978 201.789 161.717 201.286 161.652 200.741L161.072 195.261C161.037 194.945 161.071 194.626 161.169 194.325C161.268 194.023 161.429 193.746 161.643 193.511C161.857 193.277 162.118 193.091 162.409 192.965C162.7 192.839 163.014 192.776 163.332 192.781L230.332 193.941C230.827 193.949 231.305 194.12 231.694 194.427C232.082 194.735 232.359 195.161 232.482 195.641L233.842 200.851C233.927 201.18 233.935 201.525 233.868 201.858C233.8 202.191 233.657 202.505 233.449 202.775C233.242 203.045 232.976 203.264 232.671 203.416C232.367 203.567 232.032 203.648 231.692 203.651Z" fill="white"/>
</svg>
