<svg width="30" height="34" viewBox="0 0 30 34" fill="none" xmlns="http://www.w3.org/2000/svg">
<path fill-rule="evenodd" clip-rule="evenodd" d="M1.95262 2.28855C-1.98682e-07 4.24119 0 7.38387 0 13.6693V20.3359C0 26.6213 -1.98682e-07 29.7641 1.95262 31.7166C3.90525 33.6693 7.04793 33.6693 13.3333 33.6693H16.6667C22.952 33.6693 26.0948 33.6693 28.0473 31.7166C30 29.7641 30 26.6213 30 20.3359V13.6693C30 7.38387 30 4.24119 28.0473 2.28855C26.0948 0.335938 22.952 0.335938 16.6667 0.335938H13.3333C7.04793 0.335938 3.90525 0.335938 1.95262 2.28855ZM7.08333 10.3359C7.08333 9.64559 7.64298 9.08594 8.33333 9.08594H21.6667C22.357 9.08594 22.9167 9.64559 22.9167 10.3359C22.9167 11.0263 22.357 11.5859 21.6667 11.5859H8.33333C7.64298 11.5859 7.08333 11.0263 7.08333 10.3359ZM7.08333 17.0026C7.08333 16.3123 7.64298 15.7526 8.33333 15.7526H21.6667C22.357 15.7526 22.9167 16.3123 22.9167 17.0026C22.9167 17.6929 22.357 18.2526 21.6667 18.2526H8.33333C7.64298 18.2526 7.08333 17.6929 7.08333 17.0026ZM8.33333 22.4193C7.64298 22.4193 7.08333 22.9789 7.08333 23.6693C7.08333 24.3596 7.64298 24.9193 8.33333 24.9193H16.6667C17.357 24.9193 17.9167 24.3596 17.9167 23.6693C17.9167 22.9789 17.357 22.4193 16.6667 22.4193H8.33333Z" fill="#008E2F"/>
</svg>
