<svg width="40" height="27" viewBox="0 0 40 27" fill="none" xmlns="http://www.w3.org/2000/svg">
<path d="M19.9999 18.905C19.1741 18.905 18.3659 18.7508 17.5979 18.4466L7.56445 14.469C7.56445 16.685 7.56445 19.999 7.56445 20.8822C7.56445 23.9946 13.1316 26.517 20 26.517C26.8685 26.517 32.4363 23.9946 32.4363 20.8822V14.4688L22.4019 18.4466C21.6339 18.7508 20.8257 18.905 19.9999 18.905Z" fill="#008E2F"/>
<path d="M39.3184 7.96816L21.7206 0.992563C20.6154 0.554562 19.3844 0.554562 18.279 0.992563L0.681396 7.96816C0.269996 8.13116 0 8.52897 0 8.97137C0 9.41397 0.270196 9.81157 0.681396 9.97477L3.1448 10.9512V17.9362C2.5976 18.3092 2.23821 18.9376 2.23821 19.6498C2.23821 20.3022 2.53979 20.884 3.01079 21.264L2.2606 24.8654C2.16 25.3486 2.2822 25.8516 2.5938 26.2344C2.9052 26.6174 3.37259 26.8396 3.86599 26.8396H4.75581C5.24941 26.8396 5.7166 26.6174 6.028 26.2344C6.3394 25.8516 6.46161 25.3486 6.36121 24.8654L5.61079 21.264C6.08199 20.884 6.38359 20.302 6.38359 19.6498C6.38359 18.9374 6.0242 18.3092 5.477 17.9362V11.8756L18.2228 16.9284C19.3644 17.381 20.6354 17.381 21.777 16.9284L39.3188 9.97477C39.7302 9.81177 40.0002 9.41397 40.0002 8.97137C40 8.52897 39.7298 8.13116 39.3184 7.96816Z" fill="#008E2F"/>
</svg>
