<svg width="593" height="395" viewBox="0 0 593 395" fill="none" xmlns="http://www.w3.org/2000/svg">
<path d="M574.301 160.947C560.938 100.33 514.431 52.4323 451.099 36.3953C434.448 32.1846 416.737 30.0753 399.113 31.8686C327.091 39.2788 241.153 87.69 196.599 97.8494C152.045 108.009 99.7504 67.3949 40.4741 129.757C-18.8022 192.12 -5.11572 336.414 113.421 364.688C231.958 392.962 297.931 323.363 350.621 338.618C403.311 353.873 497.535 347.308 553.198 302.365C586.161 275.71 585.884 213.576 574.301 160.947Z" fill="#625EC8"/>
<path opacity="0.8" d="M574.301 160.947C560.938 100.33 514.431 52.4323 451.099 36.3953C434.448 32.1846 416.737 30.0753 399.113 31.8686C327.091 39.2788 241.153 87.69 196.599 97.8494C152.045 108.009 99.7504 67.3949 40.4741 129.757C-18.8022 192.12 -5.11572 336.414 113.421 364.688C231.958 392.962 297.931 323.363 350.621 338.618C403.311 353.873 497.535 347.308 553.198 302.365C586.161 275.71 585.884 213.576 574.301 160.947Z" fill="white"/>
<path d="M258 357.962V331.263H267.665V333.211H260.538V343.228H266.345V345.073H260.538V356.086H267.727V357.962H258Z" fill="#263238"/>
<path d="M271.162 357.962V331.263H277.212C278.575 331.194 279.932 331.473 281.158 332.072C282.095 332.59 282.824 333.417 283.221 334.411C283.665 335.573 283.878 336.811 283.85 338.055C283.853 338.999 283.743 339.94 283.52 340.858C283.326 341.683 282.941 342.451 282.395 343.1C281.808 343.748 281.016 344.177 280.152 344.316L284.247 357.962H281.802L277.877 344.841H273.689V357.962H271.162ZM273.669 343.017H277.068C277.961 343.063 278.851 342.871 279.646 342.461C280.267 342.083 280.734 341.499 280.967 340.812C281.255 339.929 281.389 339.003 281.364 338.075C281.364 336.426 281.077 335.196 280.503 334.385C279.93 333.571 278.801 333.164 277.104 333.164H273.643L273.669 343.017Z" fill="#263238"/>
<path d="M288.043 357.962V331.263H294.077C295.438 331.194 296.794 331.472 298.018 332.072C298.957 332.588 299.687 333.415 300.081 334.411C300.525 335.574 300.738 336.811 300.71 338.055C300.714 338.999 300.603 339.94 300.38 340.858C300.186 341.683 299.801 342.451 299.256 343.1C298.668 343.748 297.877 344.177 297.012 344.316L301.102 357.962H298.663L294.748 344.841H290.56V357.962H288.043ZM290.55 343.017H293.943C294.847 343.067 295.748 342.875 296.553 342.461C297.171 342.08 297.638 341.497 297.873 340.812C298.159 339.929 298.292 339.003 298.265 338.075C298.265 336.426 297.98 335.196 297.409 334.385C296.837 333.571 295.707 333.164 294.01 333.164H290.55V343.017Z" fill="#263238"/>
<path d="M311.253 358.292C309.492 358.292 308.117 357.948 307.127 357.261C306.119 356.556 305.376 355.535 305.017 354.36C304.59 352.977 304.384 351.535 304.408 350.088V339.008C304.379 337.57 304.595 336.137 305.048 334.772C305.434 333.632 306.189 332.653 307.194 331.989C308.459 331.339 309.861 331 311.284 331C312.706 331 314.108 331.339 315.374 331.989C316.377 332.651 317.127 333.631 317.504 334.772C317.946 336.139 318.157 337.571 318.128 339.008V350.118C318.153 351.559 317.947 352.994 317.519 354.37C317.159 355.536 316.423 356.551 315.425 357.256C314.418 357.946 313.027 358.292 311.253 358.292ZM311.253 356.282C312.209 356.346 313.16 356.097 313.96 355.571C314.592 355.072 315.038 354.378 315.229 353.597C315.475 352.632 315.591 351.639 315.575 350.644V338.549C315.592 337.561 315.476 336.575 315.229 335.617C315.04 334.847 314.592 334.165 313.96 333.685C313.131 333.241 312.204 333.009 311.263 333.009C310.322 333.009 309.395 333.241 308.566 333.685C307.923 334.159 307.467 334.842 307.276 335.617C307.032 336.575 306.916 337.561 306.931 338.549V350.644C306.917 351.639 307.033 352.632 307.276 353.597C307.468 354.383 307.923 355.079 308.566 355.571C309.362 356.088 310.305 356.332 311.253 356.266V356.282Z" fill="#263238"/>
<path d="M322.259 357.962V331.263H328.298C329.659 331.194 331.015 331.472 332.239 332.072C333.178 332.588 333.908 333.415 334.302 334.411C334.746 335.574 334.959 336.811 334.931 338.055C334.935 338.999 334.824 339.94 334.601 340.858C334.405 341.682 334.02 342.449 333.477 343.1C332.889 343.748 332.098 344.177 331.233 344.316L335.323 357.962H332.884L328.959 344.841H324.765V357.962H322.259ZM324.765 343.017H328.164C329.068 343.067 329.969 342.875 330.774 342.461C331.392 342.082 331.858 341.498 332.089 340.812C332.38 339.929 332.514 339.003 332.486 338.075C332.486 336.426 332.201 335.196 331.63 334.385C331.059 333.575 329.926 333.168 328.231 333.164H324.765V343.017Z" fill="#263238"/>
<path d="M473.119 308.432V245.09H390.589V204.531L461.378 36.9641H521.753V205.542H547.932V245.09H521.753V308.432H473.119ZM431.522 205.542H473.119V90.2496L431.522 205.542Z" fill="#625EC8"/>
<path d="M521.753 308.827H473.119C473.014 308.827 472.914 308.785 472.84 308.711C472.765 308.637 472.724 308.537 472.724 308.432V245.485H390.589C390.484 245.485 390.384 245.443 390.31 245.369C390.236 245.295 390.194 245.194 390.194 245.09V204.531C390.183 204.482 390.183 204.43 390.194 204.381L461.014 36.8061C461.046 36.736 461.097 36.6765 461.161 36.6345C461.226 36.5925 461.301 36.5698 461.378 36.5691H521.753C521.858 36.5691 521.958 36.6107 522.032 36.6848C522.107 36.7589 522.148 36.8593 522.148 36.9641V205.147H547.932C548.037 205.147 548.137 205.189 548.212 205.263C548.286 205.337 548.327 205.437 548.327 205.542V245.09C548.327 245.194 548.286 245.295 548.212 245.369C548.137 245.443 548.037 245.485 547.932 245.485H522.148V308.432C522.148 308.537 522.107 308.637 522.032 308.711C521.958 308.785 521.858 308.827 521.753 308.827ZM473.522 308.037H521.366V245.09C521.366 244.985 521.407 244.884 521.481 244.81C521.555 244.736 521.656 244.695 521.761 244.695H547.529V205.937H521.753C521.649 205.935 521.549 205.893 521.476 205.819C521.402 205.746 521.36 205.646 521.358 205.542V37.3591H461.639L391 204.61V244.695H473.119C473.224 244.695 473.324 244.736 473.399 244.81C473.473 244.884 473.514 244.985 473.514 245.09L473.522 308.037ZM473.127 205.937H431.522C431.458 205.937 431.395 205.921 431.339 205.89C431.282 205.86 431.234 205.816 431.198 205.763C431.163 205.712 431.141 205.653 431.132 205.591C431.124 205.53 431.13 205.467 431.15 205.408L472.747 90.1153C472.778 90.0283 472.839 89.9551 472.918 89.9088C472.998 89.8624 473.092 89.846 473.182 89.8625C473.275 89.8774 473.358 89.9245 473.419 89.9953C473.48 90.0662 473.514 90.1563 473.514 90.2496V205.542C473.512 205.646 473.47 205.746 473.396 205.819C473.323 205.893 473.223 205.935 473.119 205.937H473.127ZM432.099 205.147H472.732V92.509L432.099 205.147Z" fill="#625EC8"/>
<path d="M118.236 308.432V245.09H35.7222V204.531L106.495 36.9641H166.878V205.542H193.041V245.09H166.878V308.432H118.236ZM76.6471 205.542H118.236V90.2496L76.6471 205.542Z" fill="#625EC8"/>
<path d="M166.878 308.827H118.236C118.132 308.825 118.033 308.782 117.959 308.709C117.885 308.635 117.843 308.536 117.841 308.432V245.485H35.7221C35.6179 245.483 35.5185 245.44 35.4448 245.367C35.3711 245.293 35.3288 245.194 35.3268 245.09V204.531C35.3194 204.481 35.3194 204.431 35.3268 204.381L106.131 36.8061C106.163 36.736 106.214 36.6765 106.278 36.6345C106.343 36.5925 106.418 36.5698 106.495 36.5691H166.878C166.983 36.5691 167.083 36.6107 167.157 36.6848C167.232 36.7589 167.273 36.8593 167.273 36.9641V205.147H193.041C193.146 205.147 193.246 205.189 193.321 205.263C193.395 205.337 193.436 205.437 193.436 205.542V245.09C193.434 245.194 193.392 245.293 193.318 245.367C193.245 245.44 193.145 245.483 193.041 245.485H167.273V308.432C167.271 308.536 167.229 308.635 167.155 308.709C167.082 308.782 166.982 308.825 166.878 308.827ZM118.647 308.037H166.498V245.09C166.498 244.985 166.54 244.884 166.614 244.81C166.688 244.736 166.789 244.695 166.894 244.695H192.662V205.937H166.878C166.773 205.937 166.673 205.896 166.598 205.821C166.524 205.747 166.483 205.647 166.483 205.542V37.3591H106.74L36.1175 204.61V244.695H118.236C118.341 244.695 118.442 244.736 118.516 244.81C118.59 244.884 118.631 244.985 118.631 245.09L118.647 308.037ZM118.252 205.937H76.647C76.5828 205.937 76.5196 205.922 76.463 205.891C76.4064 205.861 76.3583 205.817 76.3229 205.763C76.2862 205.713 76.2627 205.654 76.2544 205.592C76.2462 205.53 76.2534 205.466 76.2754 205.408L117.865 90.1153C117.898 90.0286 117.96 89.9561 118.041 89.9101C118.121 89.864 118.216 89.8472 118.307 89.8625C118.399 89.8776 118.482 89.925 118.541 89.996C118.601 90.067 118.633 90.157 118.631 90.2496V205.542C118.631 205.647 118.59 205.747 118.516 205.821C118.442 205.896 118.341 205.937 118.236 205.937H118.252ZM77.2242 205.147H117.809V92.509L77.2242 205.147Z" fill="#625EC8"/>
<path d="M290.309 313.116C273.969 313.116 260.441 309.767 249.724 303.068C239.087 296.473 230.675 286.841 225.577 275.418C220.206 263.684 217.521 250.109 217.521 234.693V113.033C217.521 97.17 220.093 83.2607 225.237 71.3054C230.068 59.7288 238.397 49.9488 249.06 43.3315C259.797 36.6218 273.55 33.2695 290.317 33.2748C306.868 33.2748 320.455 36.627 331.076 43.3315C341.661 49.9958 349.922 59.7704 354.725 71.3133C359.864 83.2686 362.434 97.1779 362.434 113.041V234.701C362.434 250.122 359.751 263.697 354.385 275.426C349.284 286.848 340.873 296.479 330.238 303.076C319.495 309.77 306.186 313.116 290.309 313.116ZM290.309 267.541C296.35 267.541 300.712 265.643 303.395 261.845C306.18 257.78 308.014 253.142 308.763 248.273C309.612 243.458 310.059 238.58 310.1 233.69V114.044C310.083 108.885 309.692 103.734 308.929 98.6315C308.291 93.6557 306.51 88.8946 303.727 84.7196C301.049 80.817 296.569 78.8631 290.286 78.8578C284.002 78.8525 279.485 80.8065 276.734 84.7196C273.847 88.8565 272.006 93.6295 271.365 98.6315C270.603 103.734 270.212 108.885 270.195 114.044V233.69C270.23 238.58 270.68 243.459 271.539 248.273C272.29 253.198 274.249 257.86 277.24 261.845C280.139 265.648 284.495 267.547 290.309 267.541Z" fill="#625EC8"/>
<path d="M290.309 313.512C273.99 313.512 260.264 310.115 249.519 303.399C238.826 296.752 230.363 287.066 225.214 275.584C219.853 263.852 217.125 250.098 217.125 234.693V113.033C217.125 97.1858 219.734 83.0922 224.874 71.1632C229.75 59.5195 238.127 49.6778 248.847 42.9997C259.592 36.2926 273.547 32.8877 290.309 32.8877C306.858 32.8877 320.639 36.2926 331.274 43.0076C341.917 49.7224 350.228 59.5548 355.073 71.1632C360.22 83.1159 362.821 97.2332 362.821 113.033V234.693C362.821 250.098 360.101 263.852 354.741 275.584C349.591 287.066 341.128 296.752 330.435 303.399C319.69 310.115 306.186 313.512 290.309 313.512ZM290.309 33.6698C273.705 33.6698 259.884 37.0352 249.266 43.6633C238.68 50.2541 230.41 59.9727 225.601 71.4713C220.501 83.3213 217.916 97.2964 217.916 113.041V234.701C217.916 249.995 220.612 263.639 225.933 275.26C231.018 286.602 239.376 296.17 249.938 302.736C260.556 309.372 274.14 312.729 290.309 312.729C306.043 312.729 319.398 309.372 330.016 302.736C340.578 296.17 348.936 286.602 354.021 275.26C359.334 263.639 362.031 249.98 362.031 234.701V113.041C362.031 97.3122 359.445 83.3213 354.353 71.4713C349.568 60.0086 341.362 50.2984 330.855 43.6633C320.347 37.0352 306.708 33.6698 290.309 33.6698ZM290.309 267.936C284.387 267.936 279.88 265.969 276.915 262.083C273.893 258.041 271.909 253.322 271.135 248.337C270.279 243.5 269.829 238.601 269.791 233.69V114.044C269.809 108.864 270.203 103.692 270.969 98.5683C271.629 93.5206 273.495 88.7056 276.409 84.53C279.264 80.5326 283.944 78.5023 290.309 78.5023C296.674 78.5023 301.299 80.5326 304.051 84.5379C306.863 88.762 308.665 93.5763 309.317 98.6078C310.08 103.732 310.474 108.904 310.495 114.084V233.69C310.454 238.601 310.005 243.5 309.151 248.337C308.392 253.264 306.536 257.959 303.719 262.075C300.967 265.961 296.5 267.936 290.309 267.936ZM290.309 79.2528C284.213 79.2528 279.754 81.1646 277.05 84.9487C274.203 89.0354 272.386 93.7482 271.752 98.6868C270.992 103.771 270.601 108.904 270.582 114.044V233.69C270.621 238.556 271.068 243.411 271.918 248.202C272.661 253.072 274.592 257.684 277.54 261.632C280.355 265.314 284.656 267.162 290.309 267.162C296.192 267.162 300.477 265.298 303.07 261.632C305.825 257.611 307.636 253.02 308.368 248.202C309.215 243.41 309.662 238.556 309.704 233.69V114.044C309.682 108.904 309.291 103.771 308.534 98.6868C307.9 93.7725 306.144 89.0696 303.403 84.9408C300.809 81.1646 296.405 79.2528 290.309 79.2528Z" fill="#625EC8"/>
<path d="M217.552 172.844L220.493 215.117L202.15 206.561L197.5 225.15C197.5 225.15 236.876 247.136 240.79 246.409C244.703 245.682 234.923 160.149 234.923 160.149L217.552 172.844Z" fill="#625EC8"/>
<path d="M240.616 246.796C235.634 246.796 201.28 227.694 197.311 225.466C197.234 225.426 197.174 225.361 197.14 225.282C197.105 225.203 197.099 225.115 197.121 225.032L201.762 206.459C201.776 206.402 201.803 206.349 201.84 206.304C201.877 206.259 201.924 206.222 201.977 206.197C202.03 206.172 202.088 206.159 202.147 206.16C202.205 206.16 202.263 206.173 202.316 206.198L220.05 214.461L217.164 172.86C217.158 172.793 217.169 172.726 217.197 172.665C217.224 172.604 217.268 172.551 217.323 172.512L234.717 159.809C234.773 159.767 234.839 159.74 234.909 159.732C234.978 159.724 235.048 159.734 235.113 159.762C235.175 159.792 235.229 159.838 235.269 159.894C235.309 159.951 235.334 160.017 235.342 160.086C235.342 160.299 237.809 181.716 239.746 202.943C243.699 246.243 241.73 246.614 240.892 246.772L240.616 246.796ZM197.959 224.937C213.772 233.745 237.991 246.512 240.718 245.998C243.13 244.252 238.283 193.139 234.607 160.852L217.963 173.01L220.888 215.062C220.893 215.131 220.88 215.2 220.849 215.263C220.819 215.325 220.772 215.378 220.715 215.417C220.654 215.45 220.586 215.468 220.517 215.468C220.448 215.468 220.38 215.45 220.319 215.417L202.411 207.122L197.959 224.937Z" fill="#263238"/>
<path d="M243.992 274.817C243.992 274.817 265.11 267.565 273.365 260.645C281.619 253.724 238.378 169.961 238.378 169.961C238.378 169.961 239.042 246.796 243.992 274.817Z" fill="#263238"/>
<path d="M243.992 275.22C243.92 275.218 243.85 275.199 243.786 275.165C243.738 275.135 243.697 275.094 243.665 275.047C243.634 274.999 243.613 274.945 243.605 274.888C238.702 247.152 237.991 170.735 237.983 169.969C237.982 169.88 238.011 169.793 238.066 169.723C238.12 169.653 238.197 169.603 238.283 169.581C238.371 169.559 238.463 169.567 238.545 169.605C238.627 169.642 238.694 169.706 238.734 169.787C240.505 173.215 282.015 253.898 273.618 260.945C265.403 267.834 244.364 275.125 244.119 275.165C244.08 275.191 244.037 275.21 243.992 275.22ZM238.782 171.628C238.908 182.956 239.873 248.574 244.316 274.328C247.384 273.245 265.664 266.625 273.12 260.368C279.54 254.941 251.219 195.873 238.782 171.628Z" fill="#263238"/>
<path d="M332.404 247.76L329.961 248.123C329.97 248.244 329.97 248.366 329.961 248.487C329.771 251.647 312.804 259.973 300.817 264.492C298.2 266.514 294.689 267.541 290.277 267.541H290.175C280.932 268.434 263.158 264.381 259.141 261.616L254.808 305.856C255.504 306.204 256.215 306.528 256.935 306.852C266.323 311.007 277.44 313.088 290.285 313.093C305.118 313.093 317.706 310.17 328.048 304.324L328.269 304.197C328.925 303.818 329.566 303.407 330.206 303.044C330.847 302.681 331.716 302.072 332.452 301.567L333.124 301.101L334.658 299.995L335.369 299.449C335.875 299.062 336.373 298.659 336.856 298.272L337.456 297.783C338.129 297.222 338.793 296.653 339.433 296.06C336.697 276.5 332.404 247.76 332.404 247.76Z" fill="#737373"/>
<path d="M290.309 313.512C277.476 313.512 266.201 311.402 256.793 307.239C256.076 306.912 255.364 306.581 254.658 306.244C254.579 306.204 254.515 306.141 254.476 306.062C254.439 305.994 254.425 305.917 254.436 305.841L258.769 261.601C258.774 261.532 258.797 261.466 258.836 261.409C258.875 261.352 258.928 261.306 258.991 261.277C259.05 261.244 259.116 261.226 259.184 261.226C259.252 261.226 259.319 261.244 259.378 261.277C263.331 263.963 281.003 268.023 290.159 267.139H290.285C294.602 267.139 298.065 266.135 300.603 264.168L300.706 264.113C313.665 259.231 329.439 251.157 329.597 248.455C329.603 248.36 329.603 248.265 329.597 248.171C329.583 248.068 329.611 247.964 329.673 247.882C329.735 247.799 329.827 247.744 329.929 247.728L332.372 247.365C332.476 247.351 332.581 247.378 332.665 247.44C332.749 247.502 332.806 247.594 332.823 247.697C332.823 247.981 337.148 276.658 339.876 296.021C339.884 296.072 339.882 296.124 339.87 296.174C339.858 296.225 339.835 296.272 339.805 296.313L339.726 296.384C339.156 296.914 338.5 297.475 337.757 298.099L337.156 298.588C336.666 298.991 336.168 299.378 335.662 299.781L334.942 300.326C334.436 300.698 333.922 301.069 333.4 301.432L333.179 301.59L332.728 301.906C331.898 302.467 331.147 302.957 330.459 303.392C329.771 303.826 329.17 304.182 328.514 304.553L328.293 304.679C317.903 310.549 305.142 313.512 290.309 313.512ZM255.243 305.612C255.86 305.904 256.484 306.196 257.117 306.473C266.423 310.596 277.587 312.682 290.325 312.682C305.015 312.682 317.65 309.751 327.889 303.992L328.111 303.866C328.759 303.494 329.399 303.115 330.032 302.72C330.665 302.325 331.455 301.812 332.27 301.259L332.712 300.951L332.934 300.793C333.448 300.429 333.962 300.066 334.46 299.687L335.171 299.157C335.669 298.77 336.16 298.367 336.65 297.98L337.243 297.498C337.915 296.929 338.508 296.416 339.053 295.918C336.5 277.804 332.61 251.678 332.088 248.202L330.404 248.455V248.502C330.182 252.255 310.898 261.142 301.062 264.832C298.374 266.886 294.737 267.929 290.325 267.929H290.246C281.042 268.805 264.407 265.013 259.505 262.272L255.243 305.612Z" fill="#263238"/>
<path d="M237.714 196.354C237.714 196.354 257.275 244.11 257.52 245.832C257.765 247.554 255.583 258.385 258.73 261.277C261.877 264.168 282.885 269.003 291.819 267.312C300.754 265.622 329.771 252.587 329.993 248.487C330.214 244.386 301.244 164.249 297.623 154.595C294.001 144.941 279.263 141.56 269.356 142.524C259.449 143.488 235.539 149.768 231.191 155.804C226.842 161.839 237.714 196.354 237.714 196.354Z" fill="white"/>
<path d="M287.265 268.063C277.073 268.063 261.307 264.2 258.461 261.569C255.978 259.278 256.595 252.587 256.967 248.589C257.085 247.694 257.138 246.791 257.125 245.887C256.911 244.481 242.774 209.761 237.358 196.505C236.907 195.083 226.479 161.745 230.89 155.606C235.484 149.223 260.145 143.061 269.341 142.176C278.971 141.236 294.239 144.436 298.01 154.492C301.125 162.779 330.665 244.244 330.428 248.55C330.159 253.124 300.532 266.111 291.938 267.739C290.394 267.991 288.829 268.099 287.265 268.063ZM238.086 196.22C240.118 201.189 257.67 244.086 257.908 245.777C257.937 246.74 257.887 247.705 257.757 248.66C257.417 252.263 256.801 258.93 258.999 260.992C262.161 263.907 283.067 268.568 291.748 266.925C301.544 265.077 329.384 252.065 329.597 248.463C329.827 244.584 301.323 165.592 297.251 154.737C293.622 145.068 278.773 142.002 269.396 142.887C259.196 143.883 235.65 150.25 231.507 156.001C227.364 161.752 237.801 195.327 238.086 196.22Z" fill="#263238"/>
<path d="M239.398 151.941C239.398 151.941 237.026 173.903 238.433 178.493C239.841 183.083 246.475 195.691 246.475 195.691C246.475 195.691 257.544 181.866 259.695 180.42C261.845 178.975 281.92 191.765 281.92 191.765C281.92 191.765 282.64 178.011 279.746 166.666C276.852 155.322 271.768 143.006 270.084 140.833C268.4 138.661 268.392 146.632 262.106 151.941C255.82 157.25 239.398 151.941 239.398 151.941Z" fill="white"/>
<path d="M246.474 196.086C246.408 196.078 246.345 196.055 246.29 196.018C246.235 195.981 246.19 195.931 246.158 195.873C245.889 195.359 239.532 183.177 238.093 178.611C236.654 174.045 238.939 152.794 239.042 151.893C239.048 151.836 239.066 151.78 239.096 151.731C239.126 151.682 239.167 151.64 239.216 151.609C239.267 151.578 239.323 151.558 239.381 151.55C239.44 151.542 239.499 151.546 239.556 151.561C239.714 151.617 255.844 156.744 261.885 151.64C265.316 148.741 266.818 145.068 267.807 142.642C268.455 141.062 268.819 140.178 269.483 140.083C269.67 140.086 269.853 140.137 270.015 140.231C270.177 140.325 270.312 140.459 270.408 140.62C272.226 142.99 277.318 155.527 280.141 166.587C283.019 177.861 282.339 191.67 282.331 191.812C282.326 191.881 282.303 191.947 282.266 192.005C282.229 192.062 282.178 192.11 282.118 192.144C282.058 192.178 281.989 192.197 281.92 192.197C281.851 192.197 281.782 192.178 281.722 192.144C271.973 185.926 261.165 179.986 259.932 180.799C258.232 181.866 250.594 191.18 246.783 195.92C246.749 195.97 246.703 196.012 246.649 196.041C246.595 196.069 246.535 196.085 246.474 196.086ZM239.746 152.47C239.406 155.693 237.524 174.298 238.813 178.382C240.062 182.332 245.281 192.523 246.546 194.972C248.538 192.491 257.481 181.423 259.473 180.096C261.639 178.651 277.144 188.273 281.548 191.061C281.643 188.154 281.849 176.494 279.358 166.761C276.377 155.077 271.349 143.116 269.767 141.078C269.617 140.889 269.538 140.865 269.538 140.865C269.089 141.5 268.743 142.201 268.51 142.943C267.546 145.313 265.941 149.215 262.367 152.241C256.516 157.21 242.521 153.299 239.746 152.47Z" fill="#263238"/>
<path d="M237.619 155.764C240.065 161.464 243.125 166.881 246.743 171.92C250.983 177.689 255.983 182.861 261.608 187.293C261.608 187.293 268.392 169.834 270.218 159.414C272.045 148.994 268.914 138.566 268.914 138.566C268.914 138.566 267.609 154.2 262.13 157.329C256.65 160.457 237.619 155.764 237.619 155.764Z" fill="white"/>
<path d="M261.608 187.688C261.523 187.686 261.44 187.659 261.371 187.609C255.718 183.147 250.689 177.947 246.419 172.149C242.787 167.079 239.712 161.634 237.248 155.906C237.222 155.839 237.216 155.766 237.229 155.695C237.243 155.624 237.275 155.559 237.323 155.505C237.371 155.451 237.433 155.412 237.502 155.391C237.571 155.369 237.644 155.368 237.714 155.385C237.904 155.425 256.69 159.999 261.932 156.965C267.174 153.931 268.503 138.669 268.519 138.511C268.526 138.42 268.564 138.335 268.628 138.27C268.691 138.205 268.776 138.164 268.866 138.155C268.959 138.144 269.052 138.165 269.13 138.216C269.208 138.266 269.266 138.343 269.293 138.432C269.293 138.534 272.456 149.065 270.606 159.454C268.756 169.842 262.043 187.23 261.98 187.435C261.958 187.493 261.923 187.544 261.878 187.585C261.832 187.626 261.778 187.656 261.719 187.672L261.608 187.688ZM238.283 156.325C240.698 161.723 243.641 166.87 247.068 171.691C251.179 177.286 256.009 182.317 261.434 186.653C262.541 183.73 268.202 168.633 269.823 159.343C271.136 151.885 269.823 144.333 269.032 140.794C268.447 145.265 266.66 155.172 262.296 157.668C257.346 160.52 241.944 157.21 238.283 156.325Z" fill="#263238"/>
<path d="M251.938 158.205C247.117 157.705 242.334 156.889 237.619 155.764C240.065 161.464 243.125 166.881 246.743 171.92C247.352 172.773 247.977 173.595 248.617 174.408L259.402 161.95L251.938 158.205Z" fill="#263238"/>
<path d="M248.617 174.803C248.56 174.8 248.503 174.785 248.452 174.759C248.4 174.733 248.354 174.697 248.317 174.653C247.574 173.713 246.973 172.915 246.427 172.149C242.795 167.08 239.72 161.634 237.255 155.907C237.23 155.839 237.224 155.766 237.237 155.695C237.251 155.625 237.283 155.559 237.331 155.505C237.379 155.451 237.441 155.412 237.51 155.391C237.579 155.37 237.652 155.368 237.722 155.385C242.408 156.501 247.162 157.311 251.954 157.81C252.004 157.814 252.052 157.828 252.096 157.85L259.568 161.579C259.621 161.607 259.667 161.647 259.703 161.695C259.739 161.744 259.764 161.799 259.775 161.859C259.786 161.918 259.784 161.979 259.769 162.037C259.754 162.095 259.726 162.149 259.687 162.195L248.902 174.661C248.83 174.744 248.727 174.795 248.617 174.803ZM238.283 156.325C240.695 161.725 243.637 166.872 247.068 171.691C247.526 172.346 248.032 173.018 248.649 173.784L258.785 162.061L251.843 158.593C247.28 158.121 242.751 157.364 238.283 156.325Z" fill="#263238"/>
<path d="M268.914 138.566C268.914 138.566 276.82 170.285 279.746 194.182C282.671 218.08 289.645 288.792 289.645 288.792C289.645 288.792 311.388 282.52 322.742 274.312C334.096 266.104 337.717 260.558 337.717 260.558C337.717 260.558 319.121 179.188 319.121 178.011C319.121 176.834 321.05 164.731 321.05 164.731C321.05 164.731 353.902 149.31 366.466 139.87C379.03 130.429 375.891 125.389 369.85 122.979C363.809 120.57 344.968 123.216 334.578 126.139C324.189 129.062 318.876 130.966 318.876 130.966C318.876 130.966 307.285 130.002 296.65 132.412C286.016 134.821 268.914 138.566 268.914 138.566Z" fill="#263238"/>
<path d="M289.645 289.187C289.567 289.186 289.491 289.164 289.424 289.124C289.376 289.09 289.337 289.047 289.309 288.996C289.28 288.946 289.263 288.89 289.258 288.832C289.186 288.129 282.213 217.842 279.35 194.229C276.488 170.616 268.605 138.977 268.526 138.661C268.503 138.557 268.521 138.448 268.577 138.358C268.633 138.268 268.723 138.203 268.827 138.179C269.001 138.179 286.063 134.387 296.563 132.001C306.652 129.718 317.729 130.421 318.821 130.54C319.532 130.287 324.877 128.407 334.476 125.736C344.881 122.829 363.896 120.206 369.993 122.576C373.29 123.896 375.187 125.784 375.488 128.051C375.93 131.385 372.973 135.461 366.703 140.154C354.748 149.112 324.118 163.688 321.406 164.968C320.734 169.186 319.516 177.063 319.516 177.979C319.619 179.354 331.724 232.489 338.105 260.439C338.118 260.49 338.119 260.544 338.11 260.595C338.1 260.647 338.08 260.696 338.05 260.739C337.899 260.969 334.262 266.443 322.972 274.604C311.681 282.765 289.977 289.077 289.764 289.14C289.729 289.166 289.688 289.182 289.645 289.187ZM269.388 138.866C270.313 142.595 277.445 171.92 280.133 194.166C282.877 216.736 289.384 282.03 289.993 288.279C293.156 287.323 312.25 281.414 322.513 273.996C332.776 266.578 336.658 261.356 337.298 260.471C335.211 251.37 318.726 179.219 318.726 178.011C318.726 176.802 320.584 165.165 320.663 164.668C320.672 164.604 320.697 164.544 320.736 164.493C320.775 164.442 320.826 164.401 320.884 164.375C321.208 164.217 353.847 148.836 366.229 139.553C372.254 135.043 375.1 131.219 374.705 128.185C374.436 126.195 372.76 124.567 369.7 123.343C363.754 120.973 344.992 123.619 334.689 126.503C324.387 129.386 319.066 131.298 319.01 131.322C318.955 131.33 318.899 131.33 318.844 131.322C318.734 131.322 307.182 130.389 296.706 132.759C287.123 134.956 271.989 138.289 269.388 138.866Z" fill="#263238"/>
<path d="M285.597 219.715L284.332 223.625L285.597 219.715Z" fill="white"/>
<path d="M284.332 224.02H284.213C284.163 224.005 284.117 223.98 284.077 223.947C284.037 223.913 284.004 223.872 283.98 223.825C283.957 223.779 283.943 223.728 283.939 223.676C283.936 223.624 283.943 223.572 283.96 223.523C284.419 222.109 284.838 220.813 285.217 219.612C285.233 219.56 285.258 219.512 285.293 219.47C285.327 219.428 285.369 219.393 285.417 219.368C285.465 219.342 285.517 219.326 285.571 219.32C285.625 219.315 285.679 219.32 285.731 219.336C285.783 219.351 285.831 219.377 285.873 219.411C285.915 219.445 285.95 219.487 285.976 219.535C286.002 219.583 286.018 219.635 286.023 219.689C286.029 219.743 286.023 219.797 286.008 219.849C285.62 221.058 285.217 222.346 284.743 223.799C284.707 223.875 284.647 223.937 284.573 223.977C284.5 224.017 284.415 224.032 284.332 224.02Z" fill="#263238"/>
<path d="M286.601 216.871H286.49C286.391 216.84 286.308 216.771 286.259 216.679C286.21 216.588 286.2 216.48 286.229 216.381C287.884 210.932 289.058 205.349 289.74 199.696C291.321 188.415 292.476 170.806 292.618 168.578L289.107 166.342C289.061 166.316 289.02 166.28 288.988 166.237C288.955 166.194 288.932 166.145 288.919 166.093C288.907 166.041 288.904 165.987 288.913 165.934C288.922 165.881 288.942 165.831 288.971 165.786C289 165.741 289.038 165.702 289.082 165.672C289.127 165.642 289.177 165.621 289.23 165.611C289.282 165.601 289.336 165.602 289.389 165.614C289.441 165.625 289.491 165.647 289.534 165.679L293.243 168.049C293.302 168.088 293.35 168.143 293.382 168.206C293.413 168.27 293.428 168.341 293.424 168.412C293.424 168.602 292.183 187.791 290.523 199.815C289.847 205.5 288.672 211.115 287.012 216.594C286.985 216.68 286.93 216.755 286.855 216.805C286.781 216.855 286.691 216.878 286.601 216.871Z" fill="#263238"/>
<path d="M287.32 165.11C287.244 165.111 287.17 165.089 287.107 165.047L284.845 163.609C284.761 163.555 284.701 163.471 284.676 163.375C284.651 163.278 284.663 163.175 284.711 163.088C286.15 160.409 288.285 156.057 288.285 155.069C288.285 154.832 287.858 153.276 282.41 143.274C282.385 143.229 282.37 143.179 282.364 143.127C282.359 143.075 282.363 143.023 282.378 142.973C282.393 142.923 282.417 142.877 282.45 142.836C282.482 142.796 282.523 142.762 282.568 142.737C282.614 142.712 282.664 142.697 282.716 142.691C282.768 142.686 282.82 142.69 282.87 142.705C282.92 142.72 282.966 142.744 283.007 142.777C283.047 142.809 283.081 142.85 283.106 142.895C289.076 153.86 289.076 154.745 289.076 155.069C289.076 156.436 286.356 161.666 285.581 163.143L287.534 164.383C287.622 164.44 287.684 164.529 287.706 164.631C287.728 164.733 287.709 164.84 287.652 164.928C287.618 164.985 287.569 165.032 287.511 165.063C287.452 165.095 287.387 165.111 287.32 165.11Z" fill="#263238"/>
<path d="M280.465 138.929L281.454 140.707L280.465 138.929Z" fill="white"/>
<path d="M281.477 141.102C281.407 141.103 281.338 141.085 281.277 141.05C281.215 141.016 281.165 140.965 281.129 140.904C280.529 139.806 280.141 139.119 280.141 139.119C280.092 139.027 280.08 138.92 280.108 138.82C280.136 138.72 280.202 138.635 280.291 138.582C280.337 138.557 280.387 138.541 280.439 138.535C280.491 138.53 280.543 138.534 280.593 138.549C280.643 138.564 280.69 138.588 280.73 138.621C280.771 138.654 280.804 138.694 280.829 138.74C280.829 138.74 281.216 139.427 281.817 140.517C281.844 140.562 281.861 140.612 281.868 140.664C281.874 140.715 281.871 140.768 281.857 140.818C281.843 140.868 281.819 140.915 281.786 140.955C281.753 140.996 281.713 141.03 281.667 141.054C281.608 141.085 281.543 141.101 281.477 141.102Z" fill="#263238"/>
<path d="M300.999 262.88C300.913 262.88 300.83 262.853 300.762 262.801C300.693 262.75 300.643 262.678 300.619 262.596L298.927 256.805C298.899 256.709 298.909 256.605 298.955 256.516C299 256.426 299.078 256.358 299.172 256.323C299.172 256.323 301.11 255.597 312.456 251.259C316.779 249.644 320.895 247.523 324.719 244.939C324.761 244.907 324.81 244.883 324.862 244.869C324.914 244.856 324.968 244.853 325.021 244.861C325.074 244.869 325.125 244.888 325.17 244.917C325.216 244.945 325.255 244.982 325.286 245.026C325.316 245.07 325.338 245.12 325.348 245.173C325.359 245.225 325.359 245.279 325.348 245.332C325.337 245.384 325.316 245.434 325.285 245.478C325.255 245.522 325.215 245.559 325.17 245.587C321.291 248.205 317.12 250.36 312.74 252.01C303.822 255.423 300.714 256.6 299.789 256.948L301.284 262.043C303.964 261.498 321.374 257.643 329.692 248.242C329.729 248.205 329.773 248.175 329.821 248.155C329.869 248.135 329.921 248.125 329.973 248.125C330.025 248.125 330.077 248.135 330.125 248.155C330.173 248.175 330.217 248.205 330.254 248.242C330.326 248.316 330.367 248.415 330.367 248.518C330.367 248.622 330.326 248.721 330.254 248.795C321.09 259.16 301.244 262.888 300.999 262.92V262.88Z" fill="#263238"/>
<path d="M329.02 241.969C328.509 242.483 327.968 242.965 327.399 243.415L329.02 241.969Z" fill="white"/>
<path d="M327.399 243.81C327.342 243.81 327.285 243.798 327.233 243.773C327.181 243.749 327.135 243.713 327.099 243.668C327.065 243.627 327.04 243.581 327.024 243.531C327.009 243.481 327.004 243.428 327.009 243.376C327.014 243.323 327.029 243.273 327.054 243.227C327.079 243.18 327.113 243.14 327.154 243.107C327.707 242.668 328.235 242.198 328.735 241.701C328.808 241.624 328.908 241.579 329.013 241.576C329.118 241.573 329.22 241.612 329.297 241.685C329.373 241.757 329.418 241.857 329.421 241.962C329.424 242.067 329.385 242.169 329.313 242.246C328.785 242.766 328.231 243.259 327.652 243.723C327.579 243.778 327.491 243.809 327.399 243.81Z" fill="#263238"/>
<path d="M321.05 165.11C320.99 165.112 320.93 165.099 320.876 165.07C320.79 165.028 320.723 164.955 320.687 164.867C320.65 164.778 320.648 164.679 320.679 164.589L325.012 151.775C325.023 151.72 325.046 151.669 325.079 151.624C325.112 151.579 325.154 151.541 325.203 151.513C325.252 151.486 325.305 151.469 325.361 151.464C325.417 151.458 325.473 151.465 325.526 151.483C325.579 151.501 325.627 151.53 325.668 151.568C325.709 151.606 325.741 151.652 325.763 151.704C325.784 151.755 325.795 151.811 325.793 151.867C325.792 151.922 325.779 151.977 325.755 152.028L322.387 162.005L330.87 149.31C330.898 149.266 330.935 149.229 330.978 149.199C331.02 149.17 331.069 149.15 331.12 149.139C331.171 149.129 331.223 149.129 331.274 149.139C331.325 149.15 331.373 149.17 331.416 149.199C331.503 149.257 331.563 149.347 331.584 149.449C331.604 149.551 331.584 149.657 331.527 149.744L321.382 164.952C321.343 165.002 321.293 165.043 321.235 165.07C321.177 165.098 321.114 165.111 321.05 165.11Z" fill="#263238"/>
<path d="M326.332 149.507C326.29 149.515 326.247 149.515 326.205 149.507C326.107 149.473 326.026 149.402 325.981 149.309C325.935 149.216 325.927 149.108 325.96 149.01L326.956 146.047C326.99 145.942 327.064 145.855 327.162 145.805C327.259 145.755 327.373 145.745 327.478 145.779C327.583 145.812 327.67 145.886 327.721 145.984C327.771 146.081 327.781 146.195 327.747 146.3L326.743 149.263C326.71 149.342 326.652 149.408 326.578 149.453C326.504 149.497 326.417 149.516 326.332 149.507Z" fill="#263238"/>
<path d="M239.398 151.941C239.398 151.941 241.817 195.873 244.474 217.353C247.131 238.833 251.479 291.937 251.479 291.937C251.479 291.937 243.027 291.21 237.469 284.447C234.367 280.762 231.617 276.794 229.254 272.597V224.834C229.254 222.899 225.387 200.937 221.766 190.074C218.145 179.212 212.832 166.666 215.97 161.35C219.109 156.033 229.017 148.078 232.638 147.13C236.259 146.182 239.161 147.114 239.398 151.941Z" fill="#263238"/>
<path d="M251.48 292.3C251.124 292.3 242.782 291.51 237.192 284.677C234.08 280.976 231.316 276.996 228.938 272.787C228.907 272.728 228.891 272.663 228.89 272.597V224.834C228.89 222.812 224.937 200.81 221.426 190.2C220.857 188.502 220.248 186.764 219.64 185.01C216.335 175.53 212.919 165.789 215.686 161.152C218.849 155.812 228.756 147.722 232.591 146.735C234.82 146.134 236.544 146.3 237.841 147.209C239.137 148.117 239.738 149.681 239.849 151.949C239.849 152.391 242.3 196.11 244.925 217.337C247.55 238.564 251.883 291.399 251.93 291.929C251.936 291.987 251.928 292.046 251.907 292.1C251.887 292.155 251.854 292.204 251.812 292.245C251.764 292.277 251.709 292.299 251.652 292.309C251.594 292.318 251.536 292.315 251.48 292.3ZM229.649 272.55C232.003 276.678 234.723 280.586 237.777 284.226C242.419 289.867 249.218 291.234 251.045 291.502C250.602 286.106 246.57 237.561 244.079 217.424C241.454 196.173 239.035 152.423 239.003 151.988C238.908 150.005 238.339 148.623 237.319 147.88C236.299 147.138 234.725 146.995 232.741 147.525C229.388 148.417 219.505 156.215 216.311 161.587C213.757 165.908 217.101 175.506 220.351 184.781C220.96 186.535 221.577 188.281 222.138 189.979C225.704 200.652 229.649 222.82 229.649 224.866V272.55Z" fill="#263238"/>
<path d="M238.046 207.114C239.414 211.372 240.734 215.164 241.817 217.59L238.046 207.114Z" fill="white"/>
<path d="M241.818 217.985C241.742 217.985 241.667 217.963 241.603 217.923C241.538 217.882 241.487 217.824 241.454 217.756C240.466 215.528 239.193 211.981 237.667 207.233C237.637 207.132 237.647 207.024 237.696 206.931C237.745 206.838 237.828 206.768 237.928 206.735C237.976 206.719 238.028 206.713 238.079 206.717C238.13 206.721 238.18 206.736 238.226 206.759C238.271 206.783 238.312 206.815 238.345 206.854C238.378 206.893 238.403 206.939 238.418 206.988C239.936 211.728 241.201 215.228 242.181 217.432C242.221 217.528 242.222 217.637 242.184 217.734C242.146 217.831 242.071 217.91 241.976 217.953C241.926 217.976 241.872 217.986 241.818 217.985Z" fill="#263238"/>
<path d="M237.113 204.539C237.028 204.539 236.946 204.513 236.878 204.463C236.809 204.413 236.759 204.343 236.733 204.262C233.571 194.04 230.329 181.937 229.839 179.772C229.167 176.857 232.804 171.872 233.792 170.561C232.883 169.771 230.044 167.267 229.222 166.445C229.001 166.224 228.669 165.884 229.404 160.236C229.418 160.132 229.472 160.038 229.555 159.974C229.638 159.911 229.743 159.883 229.847 159.896C229.95 159.912 230.042 159.966 230.106 160.049C230.169 160.131 230.198 160.235 230.187 160.338C229.578 164.991 229.752 165.789 229.815 165.924C230.732 166.832 234.559 170.182 234.599 170.213C234.675 170.281 234.723 170.375 234.732 170.476C234.741 170.578 234.71 170.679 234.646 170.758C234.599 170.814 229.942 176.676 230.614 179.591C231.112 181.732 234.338 193.811 237.5 204.017C237.53 204.117 237.519 204.224 237.471 204.316C237.422 204.408 237.339 204.476 237.239 204.507C237.2 204.527 237.157 204.537 237.113 204.539Z" fill="#263238"/>
<path d="M232.393 144.214C232.393 144.214 231.12 151.135 230.218 157.21L232.393 144.214Z" fill="white"/>
<path d="M230.219 157.605H230.163C230.06 157.588 229.968 157.531 229.906 157.447C229.844 157.363 229.817 157.258 229.831 157.155C230.725 151.143 231.998 144.215 232.005 144.143C232.025 144.041 232.084 143.95 232.17 143.891C232.256 143.832 232.361 143.809 232.464 143.827C232.567 143.847 232.659 143.905 232.719 143.991C232.78 144.076 232.804 144.182 232.788 144.286C232.788 144.357 231.499 151.269 230.614 157.273C230.597 157.366 230.549 157.45 230.476 157.511C230.404 157.571 230.313 157.605 230.219 157.605Z" fill="#263238"/>
<path d="M235.215 256.197C235.158 256.195 235.102 256.182 235.049 256.158L230.78 254.151C230.697 254.1 230.637 254.021 230.609 253.928C230.581 253.835 230.588 253.736 230.629 253.648C230.67 253.56 230.742 253.491 230.831 253.452C230.92 253.414 231.02 253.41 231.112 253.44L235.389 255.447C235.483 255.491 235.556 255.571 235.591 255.668C235.627 255.766 235.622 255.874 235.579 255.968C235.546 256.036 235.494 256.093 235.43 256.134C235.365 256.174 235.291 256.196 235.215 256.197Z" fill="#263238"/>
<path d="M242.782 259.744C242.725 259.742 242.668 259.729 242.616 259.705L237.2 257.169C237.153 257.147 237.11 257.115 237.075 257.077C237.039 257.038 237.012 256.993 236.995 256.944C236.977 256.895 236.969 256.842 236.972 256.79C236.975 256.738 236.988 256.687 237.01 256.639C237.032 256.592 237.062 256.55 237.1 256.515C237.138 256.48 237.183 256.452 237.231 256.435C237.28 256.417 237.332 256.409 237.383 256.412C237.435 256.414 237.486 256.427 237.532 256.45L242.387 258.725V252.405L230.796 247.665C230.698 247.625 230.621 247.548 230.58 247.451C230.539 247.354 230.538 247.245 230.578 247.148C230.618 247.05 230.695 246.973 230.792 246.932C230.889 246.891 230.999 246.891 231.096 246.93L242.956 251.757C243.028 251.787 243.09 251.837 243.134 251.902C243.177 251.967 243.201 252.043 243.201 252.121V259.365C243.201 259.431 243.185 259.496 243.153 259.554C243.121 259.612 243.075 259.661 243.019 259.697C242.947 259.736 242.864 259.752 242.782 259.744Z" fill="#263238"/>
<path d="M221.387 122.9L225.514 133.004C225.514 133.004 220.145 127.435 218.904 132.388C217.663 137.342 221.387 143.116 223.862 143.116C226.336 143.116 229.23 143.322 229.23 143.322C229.23 143.322 237.928 158.585 243.265 161.492C248.602 164.399 255.86 166.856 260.406 164.375C264.952 161.895 267.427 155.093 268.866 149.934C270.305 144.775 269.285 129.307 269.285 129.307L261.821 98.75C261.821 98.75 266.977 96.8935 266.977 93.3859C266.977 89.8783 255.006 88.8513 255.006 88.8513C255.006 88.8513 259.75 83.3213 253.765 82.4523C247.779 81.5833 228.368 93.1805 227.752 93.5913C227.135 94.0021 231.057 86.3707 226.099 89.0567C221.142 91.7427 215.362 104.936 215.987 108.017C216.611 111.098 221.387 122.9 221.387 122.9Z" fill="white"/>
<path d="M255.899 165.774C251.044 165.774 245.62 163.206 243.051 161.824C237.903 159.051 230.013 145.534 228.961 143.701C228.249 143.654 225.885 143.511 223.83 143.511C222.849 143.511 221.695 142.721 220.667 141.442C218.983 139.285 217.654 135.619 218.493 132.293C218.809 131.022 219.426 130.255 220.311 130.018C221.663 129.663 223.339 130.682 224.47 131.598L220.983 123.074C220.793 122.592 216.239 111.224 215.599 108.151C214.958 105.078 220.659 91.561 225.877 88.7486C227.142 88.0613 228.012 87.9586 228.542 88.3931C229.412 89.112 228.921 90.8895 228.289 92.7934V92.8408C232.045 90.613 248.269 81.3068 253.804 82.081C255.527 82.318 256.603 82.9658 257.006 84.0086C257.607 85.5886 256.421 87.5715 255.733 88.5353C258.516 88.8355 267.356 90.0442 267.356 93.4017C267.356 96.6407 263.458 98.513 262.264 99.0028L269.617 129.197C269.672 129.9 270.645 144.862 269.198 150.029C266.984 157.929 264.154 162.74 260.548 164.707C259.112 165.444 257.513 165.811 255.899 165.774ZM220.912 130.729C220.778 130.728 220.645 130.746 220.517 130.785C219.924 130.943 219.505 131.511 219.26 132.483C218.469 135.556 219.726 138.953 221.292 140.952C222.153 142.058 223.102 142.721 223.83 142.721C226.296 142.721 229.198 142.927 229.23 142.927C229.293 142.932 229.355 142.953 229.408 142.988C229.462 143.022 229.507 143.069 229.538 143.124C229.625 143.274 238.236 158.324 243.422 161.128C246.759 162.922 255.077 166.801 260.184 164.012C263.592 162.155 266.296 157.51 268.455 149.792C269.87 144.76 268.866 129.449 268.858 129.299L261.434 98.8369C261.41 98.7417 261.424 98.6413 261.47 98.5551C261.517 98.469 261.594 98.4033 261.687 98.3708C261.734 98.3708 266.581 96.5617 266.581 93.378C266.581 91.087 259.465 89.6176 254.974 89.2305C254.902 89.2243 254.833 89.1985 254.774 89.1558C254.716 89.113 254.67 89.0551 254.642 88.9883C254.615 88.9214 254.606 88.8482 254.617 88.7767C254.628 88.7052 254.659 88.6381 254.705 88.5827C255.322 87.8559 256.816 85.6597 256.286 84.2614C256.002 83.4714 255.14 83.029 253.717 82.8394C248.087 82.0494 229.451 92.9277 227.981 93.8994C227.903 93.9461 227.814 93.9708 227.724 93.9708C227.633 93.9708 227.544 93.9461 227.467 93.8994C227.182 93.6861 227.269 93.4333 227.577 92.4932C227.886 91.5531 228.605 89.3806 228.075 88.9382C227.988 88.8671 227.601 88.6775 226.296 89.3885C221.473 91.9955 215.828 105.189 216.382 107.938C216.982 110.963 221.679 122.6 221.726 122.719L225.854 132.823C225.889 132.908 225.893 133.002 225.866 133.09C225.839 133.177 225.782 133.253 225.706 133.303C225.629 133.354 225.537 133.376 225.446 133.366C225.355 133.356 225.269 133.315 225.205 133.249C224.462 132.523 222.398 130.729 220.912 130.729Z" fill="#263238"/>
<path d="M255.006 88.8671C255.006 88.8671 259.75 83.3371 253.765 82.4681C247.779 81.5991 228.368 93.1963 227.752 93.6071C227.135 94.0179 231.057 86.3865 226.099 89.0725C221.142 91.7585 215.362 104.952 215.987 108.033C216.611 111.114 221.355 122.885 221.355 122.885L225.482 132.989C225.482 132.989 230.226 137.326 228.582 134.024C226.937 130.721 223.624 123.295 224.447 122.268C225.269 121.241 229.404 119.582 229.61 117.315C229.815 115.048 225.656 108.443 226.929 106.792C228.202 105.141 245.716 108.238 248.815 106.381C251.914 104.525 247.985 99.9903 247.985 99.9903L261.821 98.75C261.821 98.75 266.977 96.8935 266.977 93.3859C266.977 89.8783 255.006 88.8671 255.006 88.8671Z" fill="#737373"/>
<path d="M228.748 135.675C228.321 135.675 227.395 135.288 225.213 133.305C225.17 133.266 225.138 133.217 225.118 133.162L220.983 123.058C220.793 122.576 216.239 111.208 215.599 108.135C214.958 105.062 220.659 91.5452 225.877 88.7328C227.142 88.0455 228.012 87.9428 228.542 88.3773C229.412 89.0962 228.921 90.8737 228.289 92.7776V92.825C232.045 90.613 248.269 81.3068 253.804 82.081C255.527 82.318 256.603 82.9658 257.006 84.0086C257.607 85.5886 256.421 87.5715 255.733 88.5353C258.516 88.8355 267.356 90.0442 267.356 93.4017C267.356 97.1463 262.153 99.0581 261.932 99.1371H261.837L248.743 100.33C249.431 101.278 250.625 103.182 250.325 104.833C250.262 105.232 250.108 105.611 249.874 105.941C249.641 106.271 249.336 106.544 248.981 106.737C247.257 107.772 241.77 107.393 236.464 107.029C232.756 106.776 227.672 106.429 227.214 107.029C226.644 107.819 227.704 110.41 228.558 112.52C229.348 114.447 230.068 116.272 229.973 117.347C229.815 119.069 227.83 120.357 226.233 121.391C225.688 121.706 225.182 122.083 224.723 122.513C224.272 123.169 226.257 128.573 228.898 133.85C229.246 134.529 229.499 135.209 229.056 135.54C228.972 135.619 228.863 135.667 228.748 135.675ZM225.814 132.775C226.63 133.543 227.522 134.223 228.479 134.806C228.408 134.603 228.324 134.405 228.226 134.213C228.004 133.779 222.92 123.564 224.138 122.031C224.646 121.53 225.218 121.097 225.838 120.744C227.214 119.859 229.095 118.634 229.214 117.291C229.301 116.407 228.566 114.59 227.854 112.828C226.787 110.181 225.775 107.685 226.613 106.571C227.301 105.655 230.661 105.844 236.551 106.239C241.493 106.579 247.099 106.966 248.609 106.058C248.865 105.923 249.086 105.731 249.255 105.496C249.423 105.262 249.535 104.992 249.582 104.707C249.882 102.826 247.708 100.283 247.684 100.259C247.638 100.204 247.607 100.137 247.596 100.066C247.585 99.9953 247.594 99.9226 247.621 99.856C247.647 99.7875 247.692 99.728 247.751 99.6845C247.809 99.6411 247.88 99.6156 247.953 99.6111L261.71 98.3787C262.209 98.1891 266.565 96.4195 266.565 93.4017C266.565 91.1107 259.449 89.6413 254.958 89.2542C254.886 89.248 254.817 89.2222 254.758 89.1795C254.7 89.1367 254.654 89.0788 254.627 89.012C254.599 88.9451 254.59 88.8719 254.601 88.8004C254.612 88.7289 254.643 88.6618 254.689 88.6064C255.306 87.8796 256.8 85.6834 256.271 84.2851C255.986 83.4951 255.124 83.0527 253.701 82.8631C248.071 82.0731 229.435 92.9514 227.965 93.9231C227.887 93.9698 227.798 93.9945 227.708 93.9945C227.617 93.9945 227.528 93.9698 227.451 93.9231C227.166 93.7098 227.253 93.457 227.562 92.5169C227.87 91.5768 228.589 89.4043 228.06 88.9619C227.973 88.8908 227.585 88.7012 226.281 89.4122C221.458 92.0192 215.812 105.212 216.366 107.961C216.967 110.987 221.663 122.624 221.711 122.742L225.814 132.775Z" fill="#263238"/>
<path d="M257.686 139.83C257.686 139.83 255.828 143.338 252.942 143.543L257.686 139.83Z" fill="white"/>
<path d="M252.942 143.922C252.837 143.922 252.737 143.881 252.663 143.807C252.589 143.732 252.547 143.632 252.547 143.527C252.547 143.422 252.589 143.322 252.663 143.248C252.737 143.174 252.837 143.132 252.942 143.132C255.575 142.943 257.354 139.664 257.37 139.633C257.39 139.58 257.42 139.533 257.46 139.493C257.499 139.454 257.547 139.423 257.599 139.404C257.651 139.384 257.707 139.375 257.763 139.379C257.819 139.382 257.873 139.397 257.923 139.423C257.972 139.449 258.016 139.485 258.05 139.529C258.085 139.572 258.11 139.623 258.123 139.677C258.137 139.731 258.138 139.788 258.129 139.843C258.119 139.898 258.097 139.95 258.066 139.996C257.987 140.154 256.073 143.701 252.998 143.946L252.942 143.922Z" fill="#263238"/>
<path d="M244.885 130.35C245.462 131.59 245.217 132.925 244.34 133.336C243.462 133.747 242.284 133.068 241.707 131.827C241.129 130.587 241.375 129.252 242.252 128.841C243.13 128.43 244.316 129.086 244.885 130.35Z" fill="#263238"/>
<path d="M259.996 129.779C260.953 129.627 261.555 128.41 261.34 127.062C261.125 125.713 260.175 124.743 259.217 124.896C258.26 125.048 257.658 126.265 257.873 127.613C258.088 128.962 259.039 129.932 259.996 129.779Z" fill="#263238"/>
<path d="M252.942 151.364C255.073 151.321 257.148 150.678 258.928 149.507L252.942 151.364Z" fill="white"/>
<path d="M252.942 151.759C252.837 151.759 252.737 151.717 252.663 151.643C252.589 151.569 252.547 151.469 252.547 151.364C252.547 151.259 252.589 151.159 252.663 151.085C252.737 151.011 252.837 150.969 252.942 150.969C254.987 150.923 256.977 150.307 258.69 149.191C258.775 149.131 258.88 149.105 258.983 149.12C259.086 149.134 259.18 149.188 259.244 149.27C259.307 149.354 259.334 149.46 259.319 149.563C259.304 149.667 259.249 149.761 259.165 149.823C257.318 151.05 255.159 151.721 252.942 151.759Z" fill="#263238"/>
<path d="M234.567 128.43C234.403 128.432 234.243 128.382 234.109 128.288C233.938 128.167 233.822 127.984 233.787 127.778C233.751 127.572 233.799 127.361 233.919 127.19C234.053 127 237.24 122.616 245.542 125.239C245.641 125.27 245.733 125.321 245.812 125.388C245.892 125.455 245.957 125.538 246.005 125.63C246.053 125.722 246.082 125.823 246.09 125.927C246.099 126.031 246.087 126.135 246.056 126.234C246.024 126.333 245.973 126.425 245.906 126.504C245.839 126.584 245.756 126.649 245.664 126.697C245.571 126.745 245.47 126.774 245.367 126.782C245.263 126.791 245.158 126.779 245.059 126.748C237.943 124.496 235.318 127.956 235.208 128.099C235.135 128.201 235.039 128.284 234.927 128.342C234.816 128.399 234.693 128.43 234.567 128.43Z" fill="#263238"/>
<path d="M255.385 124.512C255.309 124.524 255.232 124.524 255.156 124.512C255.056 124.482 254.963 124.433 254.882 124.367C254.802 124.301 254.735 124.22 254.686 124.128C254.636 124.036 254.606 123.936 254.596 123.832C254.585 123.729 254.596 123.624 254.626 123.524C255.198 121.914 256.238 120.51 257.613 119.492C258.987 118.475 260.634 117.89 262.343 117.813C262.553 117.797 262.76 117.865 262.92 118.002C263.079 118.139 263.177 118.334 263.193 118.543C263.209 118.753 263.141 118.96 263.003 119.119C262.866 119.279 262.671 119.377 262.462 119.393C261.069 119.446 259.724 119.913 258.597 120.733C257.471 121.553 256.614 122.69 256.136 123.998C256.079 124.151 255.977 124.282 255.842 124.374C255.708 124.466 255.548 124.514 255.385 124.512Z" fill="#263238"/>
<path d="M266.977 119.598C266.977 119.598 268.423 116.296 270.076 118.358C271.728 120.42 272.345 124.551 271.317 127.229C270.289 129.908 269.665 132.183 269.665 132.183L269.254 129.291L266.977 119.598Z" fill="white"/>
<path d="M269.665 132.578C269.574 132.57 269.488 132.533 269.421 132.471C269.353 132.41 269.309 132.328 269.293 132.238L268.882 129.347L266.621 119.685C266.589 119.606 266.589 119.519 266.621 119.44C266.708 119.243 267.514 117.465 268.763 117.299C269.079 117.275 269.396 117.335 269.681 117.474C269.966 117.613 270.209 117.825 270.384 118.089C272.163 120.317 272.756 124.551 271.681 127.348C270.669 129.979 270.052 132.238 270.044 132.262C270.026 132.35 269.979 132.429 269.91 132.486C269.841 132.544 269.754 132.576 269.665 132.578ZM267.395 119.645L269.633 129.204L269.799 130.358C270.084 129.473 270.471 128.32 270.946 127.087C271.918 124.567 271.365 120.601 269.767 118.611C269.459 118.223 269.151 118.042 268.866 118.081C268.234 118.168 267.625 119.164 267.395 119.645Z" fill="#263238"/>
<path d="M304.968 103.49C304.968 103.49 282.268 99.382 280.813 99.382C279.359 99.382 262.438 102.479 259.964 103.506C257.489 104.533 238.695 109.905 239.106 111.145C239.517 112.385 241.794 112.788 241.794 112.788C241.794 112.788 242.205 114.645 248.815 115.474C255.425 116.304 270.898 114.234 271.112 115.68C271.133 116.173 271.052 116.666 270.873 117.127C270.695 117.587 270.424 118.006 270.076 118.358L271.934 121.66C271.934 121.66 278.75 120.633 281.019 118.982C283.288 117.331 289.716 112.172 289.716 112.172L303.545 113.207L304.968 103.49Z" fill="white"/>
<path d="M271.934 122.055C271.863 122.056 271.794 122.038 271.733 122.003C271.672 121.969 271.621 121.918 271.586 121.858L269.728 118.555C269.686 118.479 269.67 118.392 269.683 118.306C269.696 118.221 269.737 118.142 269.799 118.081C270.39 117.468 270.722 116.65 270.724 115.798C270.06 115.356 265.347 115.593 261.552 115.798C257.03 116.019 251.906 116.272 248.759 115.877C243.225 115.19 241.865 113.76 241.517 113.152C240.884 113.01 239.145 112.512 238.734 111.279C238.71 111.209 238.702 111.135 238.708 111.062C238.715 110.988 238.737 110.917 238.773 110.853C239.271 109.873 244.142 108.191 254.207 105.007C256.824 104.177 259.085 103.427 259.805 103.158C262.272 102.131 279.287 99.0028 280.813 99.0028C282.339 99.0028 304.106 102.953 305.039 103.135C305.14 103.154 305.229 103.212 305.288 103.296C305.348 103.38 305.371 103.483 305.355 103.585L303.908 113.278C303.895 113.377 303.843 113.466 303.765 113.528C303.687 113.59 303.588 113.619 303.489 113.61L289.819 112.591C288.917 113.318 283.327 117.805 281.248 119.314C278.931 121.004 272.274 122.023 271.989 122.071L271.934 122.055ZM270.558 118.413L272.139 121.226C273.42 121.02 278.868 120.056 280.781 118.658C283.019 117.078 289.376 111.919 289.439 111.864C289.517 111.802 289.616 111.771 289.716 111.777L303.157 112.78L304.493 103.83C296.587 102.392 281.888 99.777 280.773 99.777C279.271 99.777 262.501 102.866 260.074 103.877C259.283 104.185 257.148 104.873 254.405 105.742C249.503 107.322 240.457 110.158 239.493 111.129C239.864 111.919 241.28 112.306 241.825 112.401C241.901 112.418 241.971 112.456 242.027 112.51C242.083 112.565 242.123 112.634 242.141 112.709C242.141 112.709 242.75 114.289 248.823 115.079C251.898 115.466 256.982 115.214 261.473 114.992C268.898 114.621 271.309 114.59 271.459 115.624C271.504 116.126 271.447 116.631 271.292 117.11C271.137 117.589 270.887 118.032 270.558 118.413Z" fill="#263238"/>
<path d="M254.595 106.397C254.595 106.397 245.304 110.347 243.857 111.137C242.411 111.927 246.538 113.61 249.021 113.199C251.503 112.788 260.991 109.067 262.462 108.657C263.933 108.246 270.511 109.897 275.263 110.513C278.28 110.967 281.363 110.539 284.142 109.281" fill="white"/>
<path d="M248.19 113.665C246.15 113.665 243.549 112.749 243.209 111.801C243.139 111.608 243.147 111.395 243.231 111.208C243.315 111.021 243.469 110.873 243.66 110.797C245.107 109.968 254.057 106.192 254.436 106.057C254.485 106.037 254.537 106.026 254.589 106.025C254.642 106.025 254.694 106.035 254.742 106.055C254.791 106.075 254.835 106.104 254.872 106.141C254.909 106.178 254.938 106.222 254.958 106.271C254.996 106.367 254.994 106.475 254.954 106.57C254.915 106.666 254.84 106.742 254.745 106.784C254.65 106.824 245.462 110.734 244.055 111.524C244.014 111.544 243.976 111.57 243.944 111.603C244.063 112.054 246.878 113.183 248.949 112.852C250.586 112.583 255.551 110.766 258.833 109.565C260.517 108.949 261.845 108.467 262.327 108.325C263.26 108.064 265.632 108.475 269.443 109.178C271.436 109.549 273.492 109.968 275.302 110.173C278.241 110.617 281.245 110.2 283.952 108.973C284.045 108.926 284.154 108.918 284.253 108.95C284.352 108.983 284.434 109.053 284.482 109.146C284.506 109.192 284.521 109.243 284.525 109.295C284.53 109.346 284.524 109.399 284.507 109.448C284.491 109.497 284.465 109.543 284.431 109.582C284.397 109.621 284.355 109.653 284.308 109.676C281.441 110.968 278.26 111.399 275.152 110.916C273.326 110.679 271.254 110.292 269.246 109.921C266.328 109.375 263.316 108.815 262.517 109.044C262.058 109.178 260.738 109.66 259.078 110.268C255.567 111.548 250.76 113.31 249.052 113.594C248.767 113.641 248.479 113.665 248.19 113.665Z" fill="#263238"/>
<path d="M360.908 136.496C355.657 137.652 350.218 137.652 344.968 136.496C336.271 134.561 313.341 123.216 313.341 123.216L297.639 118.634L301.244 100.33C301.244 100.33 340.864 105.157 351.973 109.257C363.082 113.357 379.267 122.774 378.785 126.155C378.302 129.536 369.368 136.773 369.368 136.773" fill="#263238"/>
<path d="M352.938 137.737C350.229 137.744 347.527 137.455 344.881 136.875C336.239 134.956 314.084 124.038 313.143 123.572L297.512 119.013C297.418 118.984 297.338 118.921 297.287 118.837C297.236 118.752 297.217 118.652 297.235 118.555L300.857 100.211C300.876 100.114 300.931 100.027 301.012 99.9683C301.093 99.9097 301.192 99.8837 301.291 99.8955C301.687 99.9429 341.086 104.778 352.108 108.846C362.94 112.844 379.718 122.395 379.18 126.171C378.682 129.663 369.985 136.741 369.613 137.041C369.572 137.074 369.526 137.098 369.476 137.113C369.426 137.128 369.374 137.133 369.322 137.127C369.27 137.122 369.22 137.106 369.174 137.081C369.129 137.056 369.088 137.023 369.055 136.982C369.023 136.942 368.998 136.895 368.984 136.845C368.969 136.795 368.964 136.743 368.97 136.691C368.975 136.64 368.991 136.589 369.016 136.544C369.041 136.498 369.074 136.458 369.115 136.425C371.566 134.442 378.018 128.707 378.397 126.06C378.793 123.28 363.896 114.044 351.839 109.589C341.457 105.757 305.585 101.223 301.56 100.725L298.081 118.35L313.436 122.837C313.729 122.979 336.5 134.205 345.063 136.109C350.254 137.241 355.629 137.241 360.821 136.109C360.926 136.083 361.037 136.099 361.129 136.155C361.222 136.211 361.289 136.301 361.315 136.405C361.341 136.51 361.325 136.621 361.269 136.714C361.213 136.806 361.123 136.873 361.018 136.899C358.366 137.487 355.655 137.768 352.938 137.737Z" fill="#263238"/>
<path d="M246.198 227.962C235.469 227.962 225.056 216.207 224.542 215.615C224.5 215.577 224.467 215.531 224.444 215.48C224.422 215.429 224.411 215.373 224.411 215.317C224.412 215.261 224.424 215.206 224.448 215.156C224.471 215.105 224.505 215.06 224.548 215.023C224.59 214.986 224.639 214.959 224.693 214.943C224.747 214.927 224.803 214.922 224.859 214.93C224.914 214.937 224.968 214.956 225.015 214.986C225.063 215.015 225.103 215.055 225.135 215.101C225.277 215.259 239.62 231.454 251.472 226.043C263.324 220.631 269.507 185.239 269.57 184.884C269.589 184.781 269.648 184.689 269.734 184.629C269.819 184.568 269.925 184.544 270.029 184.56C270.132 184.579 270.223 184.638 270.284 184.723C270.344 184.809 270.369 184.914 270.353 185.018C270.1 186.487 264.115 221.145 251.804 226.762C250.045 227.565 248.132 227.974 246.198 227.962Z" fill="#263238"/>
<path d="M230.535 216.294C216.232 216.294 205.557 203.188 205.447 203.046C205.382 202.964 205.353 202.86 205.364 202.756C205.376 202.653 205.429 202.558 205.51 202.493C205.55 202.46 205.597 202.435 205.646 202.421C205.696 202.406 205.749 202.401 205.8 202.407C205.852 202.413 205.902 202.429 205.947 202.455C205.992 202.48 206.032 202.515 206.064 202.556C206.182 202.698 217.623 216.776 232.527 215.417C247.763 214.058 252.594 196.007 252.452 187.981C252.452 187.876 252.492 187.776 252.564 187.701C252.637 187.626 252.735 187.582 252.839 187.578C252.942 187.581 253.041 187.623 253.115 187.694C253.189 187.766 253.235 187.862 253.243 187.965C253.385 196.228 248.388 214.825 232.598 216.207C231.903 216.27 231.215 216.294 230.535 216.294Z" fill="#263238"/>
<path d="M212.413 193.803L207.556 192.173L199.907 214.923L204.763 216.554L212.413 193.803Z" fill="#7D7D7D"/>
<path d="M204.783 216.95C204.741 216.957 204.698 216.957 204.656 216.95L199.802 215.322C199.752 215.307 199.706 215.282 199.666 215.248C199.627 215.214 199.595 215.172 199.572 215.125C199.533 215.026 199.533 214.916 199.572 214.817L207.155 192.049C207.189 191.951 207.26 191.87 207.353 191.822C207.446 191.775 207.553 191.766 207.653 191.796L212.508 193.432C212.557 193.447 212.603 193.472 212.643 193.506C212.682 193.54 212.714 193.582 212.737 193.629C212.776 193.725 212.776 193.833 212.737 193.929L205.083 216.681C205.061 216.748 205.022 216.809 204.969 216.856C204.916 216.903 204.852 216.935 204.783 216.95ZM200.426 214.675L204.53 216.049L211.899 194.048L207.795 192.673L200.426 214.675Z" fill="#263238"/>
<path d="M214.59 191.741L207.057 189.212L205.932 192.56L213.464 195.088L214.59 191.741Z" fill="#263238"/>
<path d="M213.48 195.485H213.353L205.818 192.957C205.766 192.944 205.717 192.919 205.675 192.885C205.632 192.851 205.598 192.808 205.573 192.76C205.534 192.664 205.534 192.556 205.573 192.46L206.696 189.11C206.72 189.012 206.781 188.926 206.866 188.87C206.951 188.815 207.054 188.793 207.154 188.81L214.682 191.338C214.731 191.353 214.777 191.379 214.817 191.413C214.856 191.447 214.888 191.489 214.911 191.535C214.95 191.632 214.95 191.739 214.911 191.836L213.788 195.185C213.771 195.26 213.733 195.328 213.678 195.381C213.624 195.434 213.555 195.471 213.48 195.485ZM206.451 192.325L213.235 194.601L214.104 192.009L207.32 189.726L206.451 192.325Z" fill="#263238"/>
<path d="M223.131 197.396L218.274 195.766L210.624 218.516L215.481 220.147L223.131 197.396Z" fill="#7D7D7D"/>
<path d="M215.472 220.544C215.431 220.552 215.388 220.552 215.346 220.544L210.491 218.917C210.442 218.901 210.395 218.876 210.356 218.842C210.317 218.808 210.285 218.766 210.262 218.719C210.241 218.672 210.229 218.621 210.229 218.569C210.229 218.518 210.241 218.466 210.262 218.419L217.908 195.667C217.923 195.617 217.949 195.572 217.983 195.532C218.017 195.493 218.058 195.461 218.105 195.438C218.153 195.417 218.204 195.406 218.256 195.406C218.307 195.406 218.359 195.417 218.406 195.438L223.261 197.065C223.31 197.081 223.357 197.106 223.397 197.139C223.437 197.173 223.469 197.214 223.493 197.261C223.517 197.307 223.531 197.358 223.534 197.41C223.538 197.462 223.531 197.514 223.514 197.563L215.852 220.276C215.826 220.355 215.775 220.425 215.707 220.473C215.639 220.522 215.556 220.547 215.472 220.544ZM211.108 218.269L215.219 219.652L222.612 197.65L218.509 196.268L211.108 218.269Z" fill="#263238"/>
<path d="M225.3 195.334L217.767 192.806L216.642 196.153L224.174 198.681L225.3 195.334Z" fill="#263238"/>
<path d="M224.178 199.08H224.051L216.524 196.552C216.474 196.537 216.428 196.511 216.389 196.477C216.349 196.443 216.317 196.401 216.295 196.355C216.255 196.258 216.255 196.15 216.295 196.054L217.433 192.681C217.473 192.585 217.546 192.507 217.639 192.46C217.735 192.42 217.843 192.42 217.939 192.46L225.474 194.988C225.523 195.005 225.567 195.031 225.605 195.065C225.643 195.098 225.674 195.139 225.696 195.185C225.735 195.281 225.735 195.389 225.696 195.486L224.549 198.811C224.523 198.889 224.473 198.957 224.407 199.005C224.34 199.053 224.26 199.079 224.178 199.08ZM217.149 195.92L223.933 198.203L224.802 195.604L218.018 193.329L217.149 195.92Z" fill="#263238"/>
<path d="M221.472 203.497L205.698 198.188L199.82 215.622L215.594 220.931L221.472 203.497Z" fill="#263238"/>
<path d="M215.472 220.544C215.431 220.552 215.388 220.552 215.346 220.544L199.612 215.267C199.514 215.231 199.433 215.161 199.382 215.07C199.343 214.971 199.343 214.861 199.382 214.762L205.233 197.382C205.267 197.282 205.338 197.2 205.431 197.152C205.527 197.113 205.635 197.113 205.731 197.152L221.474 202.43C221.572 202.465 221.653 202.538 221.699 202.633C221.745 202.727 221.752 202.836 221.719 202.935L215.868 220.315C215.835 220.39 215.779 220.453 215.708 220.494C215.637 220.535 215.554 220.553 215.472 220.544ZM200.236 214.619L215.259 219.652L220.825 203.03L205.803 197.998L200.236 214.619Z" fill="#263238"/>
<path d="M201.083 226.485L186.4 221.556L194.18 208.718L202.632 211.554L201.083 226.485Z" fill="#7D7D7D"/>
<path d="M201.082 226.88H200.956L186.273 221.951C186.218 221.931 186.167 221.9 186.124 221.859C186.082 221.818 186.049 221.768 186.028 221.713C186.003 221.66 185.99 221.602 185.99 221.544C185.99 221.485 186.003 221.427 186.028 221.374L193.816 208.528C193.862 208.452 193.933 208.395 194.016 208.364C194.1 208.334 194.191 208.333 194.275 208.363L202.727 211.199C202.813 211.227 202.887 211.284 202.936 211.36C202.985 211.437 203.006 211.527 202.996 211.617L201.415 226.54C201.409 226.6 201.389 226.657 201.358 226.708C201.326 226.759 201.283 226.801 201.233 226.833C201.187 226.86 201.135 226.876 201.082 226.88ZM186.993 221.35L200.742 225.94L202.213 211.815L194.362 209.176L186.993 221.35Z" fill="#263238"/>
<path d="M201.083 226.488L186.4 221.56L181.165 237.129L195.848 242.057L201.083 226.488Z" fill="#636363"/>
<path d="M195.848 242.451C195.806 242.459 195.763 242.459 195.722 242.451L181.063 237.498C180.965 237.464 180.884 237.392 180.838 237.299C180.792 237.206 180.785 237.098 180.818 237L186.052 221.429C186.069 221.381 186.095 221.337 186.129 221.299C186.162 221.261 186.204 221.23 186.249 221.208C186.346 221.168 186.454 221.168 186.55 221.208L201.233 226.137C201.331 226.172 201.411 226.243 201.457 226.336C201.503 226.429 201.51 226.537 201.478 226.635L196.243 242.206C196.228 242.255 196.202 242.3 196.168 242.338C196.134 242.376 196.092 242.406 196.046 242.427C195.984 242.455 195.915 242.463 195.848 242.451ZM181.664 236.874L195.595 241.55L200.584 226.73L186.653 222.053L181.664 236.874Z" fill="#263238"/>
<path d="M209.885 196.864L197.278 192.632L192.043 208.201L204.65 212.433L209.885 196.864Z" fill="#636363"/>
<path d="M204.656 212.826H204.53L191.879 208.592C191.78 208.558 191.698 208.487 191.65 208.394C191.61 208.298 191.61 208.19 191.65 208.094L196.876 192.507C196.91 192.409 196.982 192.328 197.075 192.283C197.168 192.237 197.276 192.229 197.374 192.262L209.977 196.489C210.075 196.525 210.156 196.595 210.207 196.686C210.246 196.785 210.246 196.895 210.207 196.994L204.972 212.557C204.95 212.627 204.908 212.689 204.853 212.736C204.797 212.784 204.729 212.815 204.656 212.826ZM192.551 207.952L204.411 211.902L209.392 197.081L197.532 193.131L192.551 207.952Z" fill="#263238"/>
<path d="M222.509 233.682L207.827 228.752L215.615 215.915L224.067 218.751L222.509 233.682Z" fill="#7D7D7D"/>
<path d="M222.509 234.077C222.468 234.084 222.425 234.084 222.383 234.077L207.7 229.1C207.645 229.081 207.594 229.05 207.551 229.009C207.509 228.968 207.476 228.918 207.455 228.863C207.436 228.807 207.429 228.747 207.436 228.689C207.443 228.63 207.463 228.573 207.495 228.523L215.275 215.686C215.322 215.609 215.394 215.55 215.478 215.518C215.563 215.487 215.655 215.485 215.741 215.512L224.194 218.356C224.278 218.383 224.351 218.439 224.399 218.514C224.446 218.589 224.466 218.679 224.455 218.767L222.873 233.698C222.866 233.757 222.846 233.814 222.815 233.864C222.784 233.915 222.741 233.958 222.691 233.99C222.639 234.034 222.577 234.064 222.509 234.077ZM208.42 228.547L222.177 233.145L223.648 219.027L215.797 216.389L208.42 228.547Z" fill="#263238"/>
<path d="M222.516 233.682L207.833 228.753L202.598 244.322L217.281 249.251L222.516 233.682Z" fill="#636363"/>
<path d="M217.275 249.64H217.149L202.466 244.71C202.368 244.676 202.287 244.605 202.241 244.512C202.195 244.419 202.188 244.311 202.221 244.213L207.455 228.642C207.471 228.592 207.496 228.546 207.53 228.507C207.564 228.467 207.606 228.435 207.653 228.413C207.7 228.391 207.751 228.38 207.803 228.38C207.855 228.38 207.906 228.391 207.953 228.413L222.636 233.334C222.735 233.37 222.816 233.443 222.863 233.537C222.91 233.631 222.92 233.739 222.889 233.84L217.655 249.403C217.618 249.503 217.544 249.585 217.449 249.632C217.393 249.65 217.333 249.653 217.275 249.64ZM203.099 244.11L217.03 248.787L222.011 233.966L208.08 229.29L203.099 244.11Z" fill="#263238"/>
<path d="M231.32 204.053L218.714 199.821L213.479 215.39L226.086 219.622L231.32 204.053Z" fill="#636363"/>
<path d="M226.083 220.023C226.042 220.03 225.999 220.03 225.957 220.023L213.354 215.788C213.304 215.773 213.258 215.748 213.218 215.714C213.179 215.68 213.147 215.638 213.124 215.591C213.085 215.495 213.085 215.387 213.124 215.291L218.359 199.728C218.391 199.628 218.462 199.546 218.555 199.498C218.649 199.451 218.757 199.443 218.857 199.475L231.507 203.709C231.607 203.743 231.689 203.814 231.737 203.907C231.776 204.003 231.776 204.111 231.737 204.207L226.502 219.778C226.471 219.86 226.412 219.93 226.336 219.974C226.26 220.019 226.171 220.036 226.083 220.023ZM213.978 215.149L225.838 219.099L230.827 204.286L218.967 200.336L213.978 215.149Z" fill="#263238"/>
<path d="M192.29 191.599C192.29 191.599 190.582 194.411 191.088 195.217C191.594 196.023 196.52 198.732 197.224 198.938C197.928 199.143 199.841 198.148 199.738 196.821C199.635 195.493 195.785 192.705 194.607 192.002C193.429 191.299 192.796 191.18 192.29 191.599Z" fill="white"/>
<path d="M197.429 199.356C197.324 199.369 197.218 199.369 197.113 199.356C196.323 199.143 191.326 196.386 190.748 195.462C190.171 194.537 191.539 192.136 191.958 191.433C191.981 191.394 192.01 191.359 192.045 191.33C192.836 190.73 193.626 191.022 194.804 191.693C195.453 192.073 200.007 195.13 200.134 196.836C200.141 197.192 200.06 197.544 199.899 197.861C199.737 198.177 199.5 198.45 199.208 198.653C198.702 199.066 198.081 199.311 197.429 199.356ZM192.591 191.867C191.8 193.234 191.223 194.695 191.42 195.027C191.847 195.715 196.631 198.377 197.335 198.582C197.845 198.57 198.333 198.373 198.71 198.029C198.897 197.898 199.052 197.726 199.161 197.526C199.271 197.326 199.333 197.104 199.343 196.876C199.272 195.904 196.014 193.297 194.409 192.365C193.207 191.638 192.836 191.693 192.591 191.867Z" fill="#263238"/>
<path d="M189.586 197.16C189.586 197.16 188.756 200.32 189.476 200.976C190.195 201.632 195.69 202.777 196.425 202.761C197.161 202.746 198.695 201.237 198.22 200.02C197.746 198.803 193.271 197.2 191.895 196.86C190.519 196.52 189.95 196.631 189.586 197.16Z" fill="white"/>
<path d="M196.418 203.156C195.627 203.156 190.029 201.987 189.215 201.268C188.4 200.549 188.993 197.863 189.215 197.058C189.23 197.014 189.248 196.972 189.27 196.931C189.816 196.141 190.725 196.181 192.022 196.489C192.749 196.663 197.991 198.282 198.608 199.878C198.719 200.216 198.744 200.576 198.682 200.926C198.62 201.276 198.472 201.605 198.252 201.885C198.058 202.211 197.797 202.493 197.486 202.712C197.175 202.931 196.822 203.083 196.449 203.156H196.418ZM189.95 197.334C189.555 198.914 189.452 200.431 189.737 200.676C190.337 201.205 195.69 202.398 196.418 202.366C196.906 202.213 197.32 201.883 197.58 201.442C197.722 201.265 197.821 201.057 197.869 200.835C197.917 200.613 197.913 200.383 197.857 200.162C197.501 199.246 193.627 197.69 191.824 197.263C190.472 196.939 190.132 197.097 189.95 197.334Z" fill="#263238"/>
<path d="M188.076 202.69C188.076 202.69 187.246 205.85 187.965 206.506C188.685 207.162 194.18 208.307 194.915 208.291C195.651 208.276 197.184 206.767 196.71 205.55C196.236 204.333 191.768 202.73 190.385 202.39C189.001 202.05 188.44 202.161 188.076 202.69Z" fill="white"/>
<path d="M194.907 208.686C194.117 208.686 188.519 207.517 187.704 206.798C186.89 206.079 187.483 203.393 187.704 202.588C187.719 202.543 187.74 202.5 187.768 202.461C188.305 201.671 189.215 201.711 190.511 202.019C191.239 202.193 196.481 203.812 197.098 205.408C197.208 205.746 197.234 206.106 197.172 206.456C197.11 206.806 196.962 207.135 196.742 207.414C196.547 207.741 196.286 208.023 195.976 208.242C195.665 208.461 195.312 208.612 194.939 208.686H194.907ZM188.44 202.864C188.044 204.444 187.942 205.961 188.226 206.206C188.827 206.735 194.133 207.896 194.899 207.896C195.397 207.752 195.82 207.424 196.085 206.98C196.228 206.803 196.326 206.595 196.374 206.373C196.422 206.15 196.418 205.92 196.362 205.7C196.006 204.784 192.132 203.227 190.329 202.801C188.969 202.469 188.622 202.627 188.44 202.864Z" fill="#263238"/>
<path d="M188.78 208.015C188.78 208.015 187.989 211.175 188.669 211.831C189.349 212.486 194.884 213.632 195.619 213.624C196.354 213.616 197.888 212.099 197.422 210.875C196.955 209.65 192.472 208.062 191.096 207.715C189.721 207.367 189.143 207.486 188.78 208.015Z" fill="white"/>
<path d="M195.611 214.019C194.82 214.019 189.222 212.842 188.408 212.131C187.594 211.42 188.187 208.726 188.408 207.92C188.421 207.874 188.442 207.831 188.471 207.794C189.009 207.004 189.918 207.043 191.215 207.351C191.942 207.525 197.184 209.137 197.801 210.732C197.912 211.072 197.937 211.433 197.875 211.784C197.813 212.136 197.666 212.466 197.445 212.747C197.251 213.073 196.99 213.355 196.679 213.574C196.369 213.794 196.016 213.945 195.643 214.019H195.611ZM189.143 208.189C188.748 209.769 188.653 211.293 188.93 211.538C189.531 212.06 194.844 213.229 195.603 213.229C196.093 213.077 196.507 212.747 196.765 212.305C196.908 212.126 197.006 211.916 197.054 211.693C197.102 211.47 197.098 211.238 197.042 211.017C196.686 210.108 192.812 208.552 191.009 208.118C189.665 207.77 189.325 207.952 189.143 208.189Z" fill="#263238"/>
</svg>
