<svg width="26" height="26" viewBox="0 0 26 26" fill="none" xmlns="http://www.w3.org/2000/svg">
<path d="M12.9998 0C5.84992 0 0 5.86036 0 13.0782C0 19.6042 4.75793 25.0208 10.9718 25.9997V16.8633H7.66989V13.0782H10.9718V10.1936C10.9718 6.91758 12.9088 5.1164 15.8858 5.1164C17.3028 5.1164 18.7847 5.36439 18.7847 5.36439V8.58824H17.1468C15.5348 8.58824 15.0278 9.59325 15.0278 10.6244V13.0782H18.6417L18.0568 16.8633H15.0278V25.9997C18.0911 25.5139 20.8806 23.9446 22.8926 21.575C24.9045 19.2056 26.0067 16.1919 25.9996 13.0782C25.9996 5.86036 20.1497 0 12.9998 0Z" fill="#008E2F"/>
</svg>
