<svg width="26" height="26" viewBox="0 0 26 26" fill="none" xmlns="http://www.w3.org/2000/svg">
<path d="M12.9998 6.31897C11.6797 6.31897 10.3891 6.7101 9.29146 7.44286C8.19378 8.17561 7.33823 9.21713 6.83302 10.4356C6.32781 11.6542 6.19563 12.9951 6.45318 14.2887C6.71072 15.5822 7.34645 16.7706 8.27997 17.7032C9.21346 18.6357 10.4028 19.2708 11.6976 19.5281C12.9925 19.7854 14.3345 19.6534 15.5542 19.1487C16.7739 18.644 17.8164 17.7892 18.5498 16.6926C19.2834 15.5959 19.6748 14.3066 19.6748 12.9876C19.6769 12.1113 19.5058 11.2432 19.1711 10.4332C18.8363 9.62307 18.3448 8.88708 17.7245 8.26742C17.1043 7.64773 16.3676 7.15661 15.5568 6.82223C14.7459 6.48787 13.877 6.31684 12.9998 6.31897ZM12.9998 17.3304C12.1401 17.3304 11.2997 17.0757 10.5848 16.5985C9.8701 16.1214 9.31289 15.4432 8.9839 14.6496C8.65489 13.856 8.56881 12.9829 8.73653 12.1404C8.90425 11.298 9.31824 10.5241 9.9261 9.91679C10.534 9.3095 11.3086 8.8959 12.1518 8.72833C12.9951 8.56077 13.869 8.64677 14.6634 8.97547C15.4577 9.30415 16.1366 9.86084 16.6141 10.5749C17.0917 11.2891 17.3467 12.1287 17.3467 12.9876C17.3467 14.1394 16.8887 15.2441 16.0736 16.0585C15.2584 16.8729 14.1526 17.3304 12.9998 17.3304ZM21.5144 6.04247C21.5144 6.36417 21.419 6.67864 21.2401 6.94611C21.0612 7.21358 20.8069 7.42207 20.5095 7.54516C20.212 7.66827 19.8846 7.70048 19.5688 7.63773C19.2529 7.57496 18.963 7.42005 18.7352 7.19259C18.5076 6.96512 18.3525 6.67531 18.2896 6.3598C18.2268 6.04427 18.259 5.71725 18.3823 5.42004C18.5055 5.12284 18.7142 4.86881 18.9819 4.69009C19.2497 4.51136 19.5644 4.41596 19.8864 4.41596C20.3182 4.41596 20.7323 4.58733 21.0376 4.89237C21.343 5.19739 21.5144 5.6111 21.5144 6.04247ZM25.9264 7.66897C25.9738 5.64695 25.2189 3.68826 23.8263 2.22018C22.3646 0.811122 20.4031 0.0389711 18.3723 0.0731927C16.2559 -0.0243976 9.74376 -0.0243976 7.62734 0.0731927C5.60403 0.0294235 3.64481 0.783179 2.17342 2.17138C0.78087 3.63947 0.0259183 5.59816 0.0732615 7.62018C-0.0244205 9.73462 -0.0244205 16.2406 0.0732615 18.3551C0.0259183 20.3772 0.78087 22.3358 2.17342 23.8039C3.64481 25.1921 5.60403 25.9458 7.62734 25.9021C9.77632 26.0322 16.2233 26.0322 18.3723 25.9021C20.3963 25.9494 22.3568 25.1952 23.8263 23.8039C25.2189 22.3358 25.9738 20.3772 25.9264 18.3551C26.0241 16.2406 26.0241 9.73462 25.9264 7.62018V7.66897ZM23.1588 20.681C22.9377 21.2405 22.6041 21.7485 22.1784 22.1738C21.7526 22.5991 21.2442 22.9324 20.6841 23.1533C18.1568 23.6639 15.5731 23.8389 12.9998 23.6738C10.4321 23.839 7.85365 23.664 5.33181 23.1533C4.77188 22.9324 4.2633 22.5991 3.83763 22.1738C3.41195 21.7485 3.07825 21.2405 2.8572 20.681C2.17342 18.9569 2.31995 14.8906 2.31995 13.0039C2.31995 11.1171 2.17342 7.03464 2.8572 5.32681C3.07202 4.76187 3.40334 4.24838 3.82966 3.81965C4.25597 3.39094 4.76776 3.05656 5.33181 2.83825C7.85365 2.3275 10.4321 2.15248 12.9998 2.31777C15.5731 2.15276 18.1568 2.32777 20.6841 2.83825C21.2442 3.0591 21.7526 3.39248 22.1784 3.81777C22.6041 4.24303 22.9377 4.75114 23.1588 5.31054C23.8425 7.03464 23.6797 11.1009 23.6797 12.9876C23.6797 14.8744 23.8425 18.9569 23.1588 20.6647V20.681Z" fill="#008E2F"/>
</svg>
