<svg width="44" height="52" viewBox="0 0 44 52" fill="none" xmlns="http://www.w3.org/2000/svg">
<path d="M21.9991 16.25C19.5795 16.2523 17.2236 17.026 15.2738 18.4589C13.324 19.8918 11.8819 21.909 11.1571 24.2176C10.4323 26.5261 10.4625 29.0056 11.2434 31.2958C12.0242 33.586 13.515 35.5676 15.4991 36.9525V40.625C15.4991 41.056 15.6703 41.4693 15.9751 41.774C16.2798 42.0788 16.6932 42.25 17.1241 42.25H26.8741C27.3051 42.25 27.7184 42.0788 28.0232 41.774C28.3279 41.4693 28.4991 41.056 28.4991 40.625V36.9525C30.4833 35.5676 31.9741 33.586 32.7549 31.2958C33.5358 29.0056 33.566 26.5261 32.8412 24.2176C32.1163 21.909 30.6743 19.8918 28.7245 18.4589C26.7747 17.026 24.4188 16.2523 21.9991 16.25ZM17.1241 47.125C17.1241 47.556 17.2953 47.9693 17.6001 48.274C17.9048 48.5788 18.3182 48.75 18.7491 48.75H25.2491C25.6801 48.75 26.0934 48.5788 26.3982 48.274C26.7029 47.9693 26.8741 47.556 26.8741 47.125V45.5H17.1241V47.125Z" fill="#008E2F"/>
<path d="M12.5742 28.6031C12.5746 22.1031 15.4989 18.2031 22.6492 18.2031" stroke="white" stroke-width="2" stroke-linecap="round"/>
<path d="M35 18.7812L41.4347 12.3466" stroke="#008E2F" stroke-width="3" stroke-linecap="round"/>
<path d="M9.13477 18.7188L2.70009 12.2841" stroke="#008E2F" stroke-width="3" stroke-linecap="round"/>
<path d="M22.6504 13.8984L22.6504 4.79844" stroke="#008E2F" stroke-width="3" stroke-linecap="round"/>
</svg>
