<svg width="27" height="26" viewBox="0 0 27 26" fill="none" xmlns="http://www.w3.org/2000/svg">
<path d="M23.5169 0H2.71715C1.28717 0 0.117188 1.16999 0.117188 2.59997V23.3997C0.117188 24.8297 1.28717 25.9997 2.71715 25.9997H23.5169C24.9469 25.9997 26.1169 24.8297 26.1169 23.3997V2.59997C26.1169 1.16999 24.9469 0 23.5169 0ZM8.04709 20.7997H4.01714V9.61988H8.04709V20.7997ZM5.96711 8.3199C4.79713 8.3199 4.01714 7.53991 4.01714 6.49992C4.01714 5.45993 4.79713 4.67994 6.09711 4.67994C7.2671 4.67994 8.04709 5.45993 8.04709 6.49992C8.04709 7.53991 7.2671 8.3199 5.96711 8.3199ZM22.2169 20.7997H18.187V14.6898C18.187 12.9998 17.147 12.6098 16.757 12.6098C16.367 12.6098 15.067 12.8698 15.067 14.6898C15.067 14.9498 15.067 20.7997 15.067 20.7997H11.0371V9.61988H15.067V11.1799C15.587 10.2699 16.627 9.61988 18.577 9.61988C20.5269 9.61988 22.0869 11.1799 22.0869 14.6898L22.2169 20.7997Z" fill="#008E2F"/>
</svg>
