<svg width="18" height="14" viewBox="0 0 18 14" fill="none" xmlns="http://www.w3.org/2000/svg">
<path fill-rule="evenodd" clip-rule="evenodd" d="M10.1339 0.198409C10.3985 -0.0661363 10.8273 -0.0661363 11.0919 0.198409L17.4145 6.52094C17.5416 6.64793 17.6129 6.82027 17.6129 6.99992C17.6129 7.17957 17.5416 7.35191 17.4145 7.47899L11.0919 13.8016C10.8273 14.0661 10.3985 14.0661 10.1339 13.8016C9.86938 13.537 9.86938 13.1081 10.1339 12.8435L15.3 7.67734L0.67742 7.67734C0.303294 7.67734 0 7.37403 0 6.99992C0 6.6258 0.303294 6.3225 0.67742 6.3225L15.3 6.3225L10.1339 1.15643C9.86938 0.89188 9.86938 0.462965 10.1339 0.198409Z" fill="#008E2F"/>
</svg>
