<svg width="178" height="22" viewBox="0 0 178 22" fill="none" xmlns="http://www.w3.org/2000/svg">
<mask id="path-1-inside-1_1985_1845" fill="white">
<path fill-rule="evenodd" clip-rule="evenodd" d="M45.7951 8.49701H40.0857V10.2644H45.4886C46.338 10.2644 46.9096 10.4029 47.2033 10.6797C47.4971 10.9502 47.644 11.4685 47.644 12.2347V13.384C47.644 14.1502 47.4939 14.6718 47.1938 14.9486C46.8936 15.2255 46.3252 15.3639 45.4886 15.3639H40.1049C39.2491 15.3639 38.6679 15.2255 38.3614 14.9486C38.0612 14.6718 37.9111 14.1502 37.9111 13.384V13.1522L39.7121 12.8142V13.7993H45.8143V11.887H40.4401C39.5908 11.887 39.016 11.7486 38.7158 11.4717C38.4157 11.1884 38.2656 10.6669 38.2656 9.9071V8.97026C38.2656 8.21692 38.4157 7.70182 38.7158 7.42496C39.016 7.14165 39.5908 7 40.4401 7H45.3641C46.2007 7 46.7723 7.13521 47.0788 7.40564C47.3917 7.66963 47.5482 8.13966 47.5482 8.81573V9.01855L45.7951 9.39521V8.49701ZM58.536 8.49701V15.3639H56.5147V8.49701H52.5104V7H62.5499V8.49701H58.536ZM69.84 7L64.916 15.3639H66.9373L67.9815 13.5289H72.2661L71.4227 12.0029H68.8437L70.7117 8.51633L72.0004 10.8382L72.0007 10.8381L72.0889 10.9977L72.6468 12.0029H72.6444L73.9749 14.4101L73.9727 14.4113L74.5148 15.3639H76.7852L71.7846 7H69.84ZM88.5872 8.53564H83.1364V13.7607H88.5872V11.9836L90.6277 12.3989V13.384C90.6277 14.1438 90.4776 14.6653 90.1774 14.9486C89.8773 15.2255 89.3025 15.3639 88.4531 15.3639H83.2706C82.4339 15.3639 81.8655 15.2255 81.5654 14.9486C81.2652 14.6718 81.1151 14.1502 81.1151 13.384V8.97026C81.1151 8.21048 81.262 7.69217 81.5558 7.4153C81.856 7.13843 82.4276 7 83.2706 7H88.4531C89.3089 7 89.8837 7.13843 90.1774 7.4153C90.4776 7.69217 90.6277 8.21048 90.6277 8.97026V9.78154L88.5872 10.0809V8.53564ZM96.4138 7V15.3639H98.4255V7H96.4138ZM103.311 15.3639L108.235 7H110.18L115.18 15.3639H112.91L112.196 14.1086L111.04 12.0029H111.042L110.864 11.6817L110.567 11.1422L110.565 11.1436L109.107 8.51633L107.239 12.0029H109.865L110.702 13.5289H106.377L105.332 15.3639H103.311Z"/>
</mask>
<path fill-rule="evenodd" clip-rule="evenodd" d="M45.7951 8.49701H40.0857V10.2644H45.4886C46.338 10.2644 46.9096 10.4029 47.2033 10.6797C47.4971 10.9502 47.644 11.4685 47.644 12.2347V13.384C47.644 14.1502 47.4939 14.6718 47.1938 14.9486C46.8936 15.2255 46.3252 15.3639 45.4886 15.3639H40.1049C39.2491 15.3639 38.6679 15.2255 38.3614 14.9486C38.0612 14.6718 37.9111 14.1502 37.9111 13.384V13.1522L39.7121 12.8142V13.7993H45.8143V11.887H40.4401C39.5908 11.887 39.016 11.7486 38.7158 11.4717C38.4157 11.1884 38.2656 10.6669 38.2656 9.9071V8.97026C38.2656 8.21692 38.4157 7.70182 38.7158 7.42496C39.016 7.14165 39.5908 7 40.4401 7H45.3641C46.2007 7 46.7723 7.13521 47.0788 7.40564C47.3917 7.66963 47.5482 8.13966 47.5482 8.81573V9.01855L45.7951 9.39521V8.49701ZM58.536 8.49701V15.3639H56.5147V8.49701H52.5104V7H62.5499V8.49701H58.536ZM69.84 7L64.916 15.3639H66.9373L67.9815 13.5289H72.2661L71.4227 12.0029H68.8437L70.7117 8.51633L72.0004 10.8382L72.0007 10.8381L72.0889 10.9977L72.6468 12.0029H72.6444L73.9749 14.4101L73.9727 14.4113L74.5148 15.3639H76.7852L71.7846 7H69.84ZM88.5872 8.53564H83.1364V13.7607H88.5872V11.9836L90.6277 12.3989V13.384C90.6277 14.1438 90.4776 14.6653 90.1774 14.9486C89.8773 15.2255 89.3025 15.3639 88.4531 15.3639H83.2706C82.4339 15.3639 81.8655 15.2255 81.5654 14.9486C81.2652 14.6718 81.1151 14.1502 81.1151 13.384V8.97026C81.1151 8.21048 81.262 7.69217 81.5558 7.4153C81.856 7.13843 82.4276 7 83.2706 7H88.4531C89.3089 7 89.8837 7.13843 90.1774 7.4153C90.4776 7.69217 90.6277 8.21048 90.6277 8.97026V9.78154L88.5872 10.0809V8.53564ZM96.4138 7V15.3639H98.4255V7H96.4138ZM103.311 15.3639L108.235 7H110.18L115.18 15.3639H112.91L112.196 14.1086L111.04 12.0029H111.042L110.864 11.6817L110.567 11.1422L110.565 11.1436L109.107 8.51633L107.239 12.0029H109.865L110.702 13.5289H106.377L105.332 15.3639H103.311Z" fill="#151F43"/>
<path d="M40.0857 8.49701V7.74701H39.3357V8.49701H40.0857ZM45.7951 8.49701H46.5451V7.74701H45.7951V8.49701ZM40.0857 10.2644H39.3357V11.0144H40.0857V10.2644ZM47.2033 10.6797L46.6889 11.2256L46.6954 11.2315L47.2033 10.6797ZM47.1938 14.9486L46.6853 14.3973L46.6853 14.3973L47.1938 14.9486ZM38.3614 14.9486L37.8528 15.5L37.8587 15.5052L38.3614 14.9486ZM37.9111 13.1522L37.7728 12.4151L37.1611 12.5299V13.1522H37.9111ZM39.7121 12.8142H40.4621V11.9103L39.5737 12.0771L39.7121 12.8142ZM39.7121 13.7993H38.9621V14.5493H39.7121V13.7993ZM45.8143 13.7993V14.5493H46.5643V13.7993H45.8143ZM45.8143 11.887H46.5643V11.137H45.8143V11.887ZM38.7158 11.4717L38.201 12.0172L38.2073 12.023L38.7158 11.4717ZM38.7158 7.42496L39.2244 7.97628L39.2306 7.97038L38.7158 7.42496ZM47.0788 7.40564L46.5827 7.96807L46.5889 7.97356L46.5952 7.9789L47.0788 7.40564ZM47.5482 9.01855L47.7058 9.75181L48.2982 9.62452V9.01855H47.5482ZM45.7951 9.39521H45.0451V10.3235L45.9527 10.1285L45.7951 9.39521ZM58.536 15.3639V16.1139H59.286V15.3639H58.536ZM58.536 8.49701V7.74701H57.786V8.49701H58.536ZM56.5147 15.3639H55.7647V16.1139H56.5147V15.3639ZM56.5147 8.49701H57.2647V7.74701H56.5147V8.49701ZM52.5104 8.49701H51.7604V9.24701H52.5104V8.49701ZM52.5104 7V6.25H51.7604V7H52.5104ZM62.5499 7H63.2999V6.25H62.5499V7ZM62.5499 8.49701V9.24701H63.2999V8.49701H62.5499ZM64.916 15.3639L64.2697 14.9834L63.6042 16.1139H64.916V15.3639ZM69.84 7V6.25H69.4112L69.1936 6.61951L69.84 7ZM66.9373 15.3639V16.1139H67.3735L67.5892 15.7349L66.9373 15.3639ZM67.9815 13.5289V12.7789H67.5454L67.3297 13.158L67.9815 13.5289ZM72.2661 13.5289V14.2789H73.5375L72.9225 13.1661L72.2661 13.5289ZM71.4227 12.0029L72.0791 11.6401L71.8651 11.2529H71.4227V12.0029ZM68.8437 12.0029L68.1826 11.6487L67.591 12.7529H68.8437V12.0029ZM70.7117 8.51633L71.3675 8.15237L70.7001 6.9499L70.0506 8.16213L70.7117 8.51633ZM72.0004 10.8382L71.3446 11.2022L71.7032 11.8483L72.3546 11.4993L72.0004 10.8382ZM72.0007 10.8381L72.6571 10.4753L72.299 9.82735L71.6464 10.177L72.0007 10.8381ZM72.0889 10.9977L71.4324 11.3605L71.4331 11.3616L72.0889 10.9977ZM72.6468 12.0029V12.7529H73.9208L73.3025 11.639L72.6468 12.0029ZM72.6444 12.0029V11.2529H71.373L71.988 12.3657L72.6444 12.0029ZM73.9749 14.4101L74.3292 15.0711L74.9988 14.7123L74.6313 14.0473L73.9749 14.4101ZM73.9727 14.4113L73.6184 13.7502L72.9404 14.1136L73.3209 14.7822L73.9727 14.4113ZM74.5148 15.3639L73.8629 15.7349L74.0786 16.1139H74.5148V15.3639ZM76.7852 15.3639V16.1139H78.1074L77.4289 14.9791L76.7852 15.3639ZM71.7846 7L72.4283 6.61514L72.21 6.25H71.7846V7ZM83.1364 8.53564V7.78564H82.3864V8.53564H83.1364ZM88.5872 8.53564H89.3372V7.78564H88.5872V8.53564ZM83.1364 13.7607H82.3864V14.5107H83.1364V13.7607ZM88.5872 13.7607V14.5107H89.3372V13.7607H88.5872ZM88.5872 11.9836L88.7368 11.2487L87.8372 11.0656V11.9836H88.5872ZM90.6277 12.3989H91.3777V11.7862L90.7773 11.664L90.6277 12.3989ZM90.1774 14.9486L90.686 15.5L90.6922 15.4941L90.1774 14.9486ZM81.5654 14.9486L81.0569 15.4999L81.0569 15.4999L81.5654 14.9486ZM81.5558 7.4153L81.0473 6.86398L81.0414 6.8695L81.5558 7.4153ZM90.1774 7.4153L89.663 7.96113L89.6689 7.96659L90.1774 7.4153ZM90.6277 9.78154L90.7366 10.5236L91.3777 10.4295V9.78154H90.6277ZM88.5872 10.0809H87.8372V10.949L88.6961 10.823L88.5872 10.0809ZM96.4138 15.3639H95.6638V16.1139H96.4138V15.3639ZM96.4138 7V6.25H95.6638V7H96.4138ZM98.4255 15.3639V16.1139H99.1755V15.3639H98.4255ZM98.4255 7H99.1755V6.25H98.4255V7ZM108.235 7V6.25H107.806L107.589 6.61951L108.235 7ZM103.311 15.3639L102.665 14.9834L101.999 16.1139H103.311V15.3639ZM110.18 7L110.823 6.61514L110.605 6.25H110.18V7ZM115.18 15.3639V16.1139H116.502L115.824 14.9791L115.18 15.3639ZM112.91 15.3639L112.258 15.7349L112.474 16.1139H112.91V15.3639ZM112.196 14.1086L111.538 14.4695L111.544 14.4795L112.196 14.1086ZM111.04 12.0029V11.2529H109.773L110.382 12.3638L111.04 12.0029ZM111.042 12.0029V12.7529H112.316L111.698 11.6389L111.042 12.0029ZM110.864 11.6817L110.206 12.0426L110.208 12.0457L110.864 11.6817ZM110.567 11.1422L111.225 10.7813L110.867 10.129L110.212 10.4819L110.567 11.1422ZM110.565 11.1436L109.909 11.5075L110.269 12.1551L110.921 11.8039L110.565 11.1436ZM109.107 8.51633L109.763 8.15237L109.095 6.9499L108.446 8.16213L109.107 8.51633ZM107.239 12.0029L106.578 11.6487L105.986 12.7529H107.239V12.0029ZM109.865 12.0029L110.522 11.6421L110.309 11.2529H109.865V12.0029ZM110.702 13.5289V14.2789H111.97L111.36 13.168L110.702 13.5289ZM106.377 13.5289V12.7789H105.94L105.725 13.158L106.377 13.5289ZM105.332 15.3639V16.1139H105.769L105.984 15.7349L105.332 15.3639ZM40.0857 9.24701H45.7951V7.74701H40.0857V9.24701ZM40.8357 10.2644V8.49701H39.3357V10.2644H40.8357ZM45.4886 9.51445H40.0857V11.0144H45.4886V9.51445ZM47.7177 10.1339C47.4424 9.87448 47.0892 9.72612 46.7309 9.63934C46.368 9.55145 45.9489 9.51445 45.4886 9.51445V11.0144C45.8777 11.0144 46.1691 11.0467 46.3778 11.0972C46.5911 11.1489 46.6705 11.2081 46.689 11.2256L47.7177 10.1339ZM48.394 12.2347C48.394 11.4316 48.252 10.6257 47.7113 10.1279L46.6954 11.2315C46.7422 11.2746 46.894 11.5054 46.894 12.2347H48.394ZM48.394 13.384V12.2347H46.894V13.384H48.394ZM47.7023 15.4999C48.2464 14.998 48.394 14.1933 48.394 13.384H46.894C46.894 14.1071 46.7414 14.3455 46.6853 14.3973L47.7023 15.4999ZM45.4886 16.1139C46.3461 16.1139 47.1765 15.9849 47.7023 15.4999L46.6853 14.3973C46.6108 14.4661 46.3043 14.6139 45.4886 14.6139V16.1139ZM40.1049 16.1139H45.4886V14.6139H40.1049V16.1139ZM37.8587 15.5052C38.3905 15.9855 39.2307 16.1139 40.1049 16.1139V14.6139C39.2675 14.6139 38.9454 14.4655 38.8641 14.392L37.8587 15.5052ZM37.1611 13.384C37.1611 14.1933 37.3087 14.998 37.8529 15.4999L38.8699 14.3973C38.8137 14.3455 38.6611 14.1071 38.6611 13.384H37.1611ZM37.1611 13.1522V13.384H38.6611V13.1522H37.1611ZM39.5737 12.0771L37.7728 12.4151L38.0495 13.8894L39.8505 13.5513L39.5737 12.0771ZM40.4621 13.7993V12.8142H38.9621V13.7993H40.4621ZM45.8143 13.0493H39.7121V14.5493H45.8143V13.0493ZM45.0643 11.887V13.7993H46.5643V11.887H45.0643ZM40.4401 12.637H45.8143V11.137H40.4401V12.637ZM38.2073 12.023C38.4842 12.2784 38.8368 12.4257 39.1964 12.5123C39.5603 12.6 39.9796 12.637 40.4401 12.637V11.137C40.0513 11.137 39.7586 11.1048 39.5476 11.054C39.3325 11.0022 39.2476 10.9419 39.2243 10.9204L38.2073 12.023ZM37.5156 9.9071C37.5156 10.7151 37.6653 11.5114 38.201 12.0171L39.2306 10.9263C39.1661 10.8654 39.0156 10.6186 39.0156 9.9071H37.5156ZM37.5156 8.97026V9.9071H39.0156V8.97026H37.5156ZM38.2073 6.87367C37.665 7.37389 37.5156 8.16916 37.5156 8.97026H39.0156C39.0156 8.26469 39.1663 8.02976 39.2243 7.97625L38.2073 6.87367ZM40.4401 6.25C39.5711 6.25 38.7286 6.38156 38.201 6.87953L39.2306 7.97038C39.3033 7.90174 39.6104 7.75 40.4401 7.75V6.25ZM45.3641 6.25H40.4401V7.75H45.3641V6.25ZM47.575 6.84321C47.0458 6.37641 46.2222 6.25 45.3641 6.25V7.75C46.1792 7.75 46.4987 7.89402 46.5827 7.96807L47.575 6.84321ZM48.2982 8.81573C48.2982 8.05904 48.1282 7.30964 47.5624 6.83238L46.5952 7.9789C46.6553 8.02962 46.7982 8.22028 46.7982 8.81573H48.2982ZM48.2982 9.01855V8.81573H46.7982V9.01855H48.2982ZM45.9527 10.1285L47.7058 9.75181L47.3907 8.28528L45.6376 8.66195L45.9527 10.1285ZM45.0451 8.49701V9.39521H46.5451V8.49701H45.0451ZM59.286 15.3639V8.49701H57.786V15.3639H59.286ZM56.5147 16.1139H58.536V14.6139H56.5147V16.1139ZM55.7647 8.49701V15.3639H57.2647V8.49701H55.7647ZM52.5104 9.24701H56.5147V7.74701H52.5104V9.24701ZM51.7604 7V8.49701H53.2604V7H51.7604ZM62.5499 6.25H52.5104V7.75H62.5499V6.25ZM63.2999 8.49701V7H61.7999V8.49701H63.2999ZM58.536 9.24701H62.5499V7.74701H58.536V9.24701ZM65.5624 15.7444L70.4863 7.38049L69.1936 6.61951L64.2697 14.9834L65.5624 15.7444ZM66.9373 14.6139H64.916V16.1139H66.9373V14.6139ZM67.3297 13.158L66.2855 14.993L67.5892 15.7349L68.6334 13.8998L67.3297 13.158ZM72.2661 12.7789H67.9815V14.2789H72.2661V12.7789ZM70.7663 12.3657L71.6097 13.8917L72.9225 13.1661L72.0791 11.6401L70.7663 12.3657ZM68.8437 12.7529H71.4227V11.2529H68.8437V12.7529ZM70.0506 8.16213L68.1826 11.6487L69.5048 12.3571L71.3728 8.87052L70.0506 8.16213ZM72.6561 10.4743L71.3675 8.15237L70.0559 8.88028L71.3446 11.2022L72.6561 10.4743ZM71.6464 10.177L71.6461 10.1771L72.3546 11.4993L72.3549 11.4991L71.6464 10.177ZM72.7453 10.6349L72.6571 10.4753L71.3442 11.2009L71.4324 11.3605L72.7453 10.6349ZM73.3025 11.639L72.7446 10.6337L71.4331 11.3616L71.991 12.3669L73.3025 11.639ZM72.6444 12.7529H72.6468V11.2529H72.6444V12.7529ZM74.6313 14.0473L73.3009 11.6401L71.988 12.3657L73.3184 14.7729L74.6313 14.0473ZM74.327 15.0723L74.3292 15.0711L73.6206 13.7491L73.6184 13.7502L74.327 15.0723ZM75.1667 14.993L74.6246 14.0403L73.3209 14.7822L73.8629 15.7349L75.1667 14.993ZM76.7852 14.6139H74.5148V16.1139H76.7852V14.6139ZM71.1409 7.38486L76.1414 15.7488L77.4289 14.9791L72.4283 6.61514L71.1409 7.38486ZM69.84 7.75H71.7846V6.25H69.84V7.75ZM83.1364 9.28564H88.5872V7.78564H83.1364V9.28564ZM83.8864 13.7607V8.53564H82.3864V13.7607H83.8864ZM88.5872 13.0107H83.1364V14.5107H88.5872V13.0107ZM87.8372 11.9836V13.7607H89.3372V11.9836H87.8372ZM90.7773 11.664L88.7368 11.2487L88.4377 12.7185L90.4781 13.1338L90.7773 11.664ZM91.3777 13.384V12.3989H89.8777V13.384H91.3777ZM90.6922 15.4941C91.228 14.9884 91.3777 14.192 91.3777 13.384H89.8777C89.8777 14.0956 89.7272 14.3423 89.6627 14.4032L90.6922 15.4941ZM88.4531 16.1139C88.9136 16.1139 89.333 16.0769 89.6969 15.9893C90.0565 15.9026 90.4091 15.7553 90.686 15.4999L89.6689 14.3973C89.6456 14.4188 89.5608 14.4791 89.3456 14.531C89.1347 14.5818 88.842 14.6139 88.4531 14.6139V16.1139ZM83.2706 16.1139H88.4531V14.6139H83.2706V16.1139ZM81.0569 15.4999C81.5827 15.9849 82.413 16.1139 83.2706 16.1139V14.6139C82.4549 14.6139 82.1484 14.4661 82.0739 14.3973L81.0569 15.4999ZM80.3651 13.384C80.3651 14.1933 80.5127 14.998 81.0569 15.4999L82.0739 14.3973C82.0177 14.3455 81.8651 14.1071 81.8651 13.384H80.3651ZM80.3651 8.97026V13.384H81.8651V8.97026H80.3651ZM81.0414 6.8695C80.5093 7.37101 80.3651 8.16827 80.3651 8.97026H81.8651C81.8651 8.2527 82.0148 8.01332 82.0702 7.9611L81.0414 6.8695ZM83.2706 6.25C82.4085 6.25 81.5738 6.37839 81.0473 6.86401L82.0643 7.96659C82.1382 7.89847 82.4466 7.75 83.2706 7.75V6.25ZM88.4531 6.25H83.2706V7.75H88.4531V6.25ZM90.6918 6.8695C90.4158 6.60934 90.0609 6.46121 89.7016 6.37467C89.3374 6.28696 88.9163 6.25 88.4531 6.25V7.75C88.8457 7.75 89.1399 7.78226 89.3504 7.83297C89.5659 7.88487 89.6453 7.94439 89.6631 7.9611L90.6918 6.8695ZM91.3777 8.97026C91.3777 8.16507 91.2292 7.36509 90.686 6.86401L89.6689 7.96659C89.726 8.01924 89.8777 8.2559 89.8777 8.97026H91.3777ZM91.3777 9.78154V8.97026H89.8777V9.78154H91.3777ZM88.6961 10.823L90.7366 10.5236L90.5188 9.03949L88.4784 9.33889L88.6961 10.823ZM87.8372 8.53564V10.0809H89.3372V8.53564H87.8372ZM97.1638 15.3639V7H95.6638V15.3639H97.1638ZM98.4255 14.6139H96.4138V16.1139H98.4255V14.6139ZM97.6755 7V15.3639H99.1755V7H97.6755ZM96.4138 7.75H98.4255V6.25H96.4138V7.75ZM107.589 6.61951L102.665 14.9834L103.957 15.7444L108.881 7.38049L107.589 6.61951ZM110.18 6.25H108.235V7.75H110.18V6.25ZM115.824 14.9791L110.823 6.61514L109.536 7.38486L114.536 15.7488L115.824 14.9791ZM112.91 16.1139H115.18V14.6139H112.91V16.1139ZM111.544 14.4795L112.258 15.7349L113.562 14.993L112.847 13.7377L111.544 14.4795ZM110.382 12.3638L111.538 14.4695L112.853 13.7478L111.697 11.6421L110.382 12.3638ZM111.042 11.2529H111.04V12.7529H111.042V11.2529ZM110.208 12.0457L110.386 12.3669L111.698 11.6389L111.519 11.3177L110.208 12.0457ZM109.91 11.503L110.206 12.0425L111.521 11.3209L111.225 10.7813L109.91 11.503ZM110.921 11.8039L110.923 11.8025L110.212 10.4819L110.209 10.4833L110.921 11.8039ZM108.451 8.88028L109.909 11.5075L111.221 10.7796L109.763 8.15237L108.451 8.88028ZM107.9 12.3571L109.768 8.87052L108.446 8.16213L106.578 11.6487L107.9 12.3571ZM109.865 11.2529H107.239V12.7529H109.865V11.2529ZM111.36 13.168L110.522 11.6421L109.207 12.3638L110.045 13.8897L111.36 13.168ZM106.377 14.2789H110.702V12.7789H106.377V14.2789ZM105.984 15.7349L107.028 13.8998L105.725 13.158L104.681 14.993L105.984 15.7349ZM103.311 16.1139H105.332V14.6139H103.311V16.1139Z" fill="#151F43" mask="url(#path-1-inside-1_1985_1845)"/>
<path fill-rule="evenodd" clip-rule="evenodd" d="M129.032 8.53564H123.577V13.7607H129.032V11.9836L131.074 12.3989V13.384C131.074 14.1438 130.924 14.6653 130.624 14.9486C130.323 15.2255 129.748 15.3639 128.898 15.3639H123.712C122.874 15.3639 122.306 15.2255 122.005 14.9486C121.705 14.6718 121.555 14.1502 121.555 13.384V8.97026C121.555 8.21048 121.702 7.69217 121.996 7.4153C122.296 7.13843 122.868 7 123.712 7H128.898C129.754 7 130.33 7.13843 130.624 7.4153C130.924 7.69217 131.074 8.21048 131.074 8.97026V9.78154L129.032 10.0809V8.53564ZM138.686 13.7607H145.377V8.53564H138.686V13.7607ZM136.663 8.97026C136.663 8.21048 136.81 7.69217 137.104 7.4153C137.398 7.13843 137.97 7 138.82 7H145.243C146.099 7 146.671 7.13843 146.959 7.4153C147.253 7.69217 147.4 8.21048 147.4 8.97026V13.384C147.4 14.1502 147.25 14.6718 146.95 14.9486C146.656 15.2255 146.087 15.3639 145.243 15.3639H138.82C137.97 15.3639 137.398 15.2255 137.104 14.9486C136.81 14.6718 136.663 14.1502 136.663 13.384V8.97026ZM155.347 8.43906H159.968C160.32 8.43906 160.559 8.49057 160.687 8.59359C160.821 8.69661 160.888 8.87046 160.888 9.11513V10.0809C160.888 10.3256 160.821 10.4995 160.687 10.6025C160.559 10.7055 160.32 10.757 159.968 10.757H155.347V8.43906ZM153.353 7V15.3639H155.347V12.1961H157.255L160.735 15.3639H163.64L159.69 12.1961H160.831C161.515 12.1961 162.01 12.0705 162.317 11.8194C162.624 11.5683 162.777 11.1594 162.777 10.5928V8.62256C162.777 8.04952 162.624 7.63744 162.317 7.38632C162.01 7.12877 161.515 7 160.831 7H153.353ZM168.577 15.3639V7H176.054C176.745 7 177.24 7.12877 177.54 7.38632C177.847 7.63744 178 8.04952 178 8.62256V10.4769C178 11.05 177.847 11.4653 177.54 11.7228C177.233 11.9739 176.738 12.0995 176.054 12.0995H170.571V15.3639H168.577ZM175.192 8.43906H170.571V10.6604H175.192C175.543 10.6604 175.783 10.6089 175.911 10.5059C176.045 10.4029 176.112 10.229 176.112 9.98436V9.11513C176.112 8.87046 176.045 8.69661 175.911 8.59359C175.783 8.49057 175.543 8.43906 175.192 8.43906Z" fill="#1C39BB"/>
<path d="M25.5208 8.41699C25.0276 8.41699 24.5932 8.75278 24.4596 9.24017L22.5743 16.0831C22.4406 16.5656 22.0127 16.9014 21.5226 16.9063L5.31543 17.0595C2.84306 17.1035 0.763666 19.6839 0 21.6791H26.3369C26.8429 21.6791 27.2836 21.327 27.4077 20.8233L28.3431 16.9976H28.3813L29.2866 13.713C30.0168 11.0642 28.1347 8.41699 25.5208 8.41699Z" fill="#151F43"/>
<path d="M32.0104 0H5.67669C5.17076 0 4.73006 0.352091 4.60596 0.855778L3.67047 4.68151H3.63229L2.72703 7.96607C1.99677 10.6149 3.87889 13.2621 6.49285 13.2621C6.98605 13.2621 7.42039 12.9263 7.55403 12.4389L9.43933 5.59597C9.57297 5.11347 10.0009 4.77768 10.491 4.77279L26.6982 4.61957C29.1706 4.57556 31.2579 1.99518 32.0216 0H32.0088L32.0104 0Z" fill="#151F43"/>
<path d="M18.8742 9.48469C19.5767 9.4769 20.2065 8.81216 20.4244 8.46191H13.2843C12.8471 8.46191 12.4729 8.76858 12.3908 9.19043L12.3719 9.28539H12.3608L11.63 13.0463L11.5952 13.2985C11.5952 13.2985 11.5514 13.6207 11.7405 13.6207V13.6238H19.6335C19.4156 13.272 18.7085 12.6836 18.006 12.6758H13.9047C13.3108 12.6758 13.3491 12.3645 13.3491 12.3645L13.9047 9.98121C14.0042 9.58271 14.0374 9.48624 14.4541 9.48469H18.8742Z" fill="#1C39BB"/>
</svg>
