<svg width="32" height="34" viewBox="0 0 32 34" fill="none" xmlns="http://www.w3.org/2000/svg">
<path d="M31.2664 25.4729L22.3974 9.75311L22.4629 2.51852H23.6731C24.0123 2.51852 24.3376 2.38585 24.5774 2.14969C24.8173 1.91353 24.952 1.59324 24.952 1.25926C24.952 0.925283 24.8173 0.604986 24.5774 0.368829C24.3376 0.132672 24.0123 0 23.6731 0H8.32674C7.98756 0 7.66228 0.132672 7.42244 0.368829C7.18261 0.604986 7.04787 0.925283 7.04787 1.25926C7.04787 1.59324 7.18261 1.91353 7.42244 2.14969C7.66228 2.38585 7.98756 2.51852 8.32674 2.51852H9.53699L9.60248 9.75311L0.73347 25.4736C0.24057 26.3472 -0.0121068 27.3324 0.0004459 28.3317C0.0129986 29.331 0.290345 30.3098 0.805039 31.1712C1.31973 32.0325 2.05393 32.7466 2.93498 33.2428C3.81602 33.7389 4.81337 34 5.82833 34H26.1715C27.1865 33.9999 28.1839 33.7389 29.065 33.2427C29.9461 32.7465 30.6803 32.0323 31.195 31.1709C31.7097 30.3095 31.987 29.3306 31.9996 28.3313C32.0121 27.3319 31.7594 26.3466 31.2664 25.4729ZM12.0022 10.6859C12.1096 10.4954 12.1651 10.2808 12.1633 10.063L12.095 2.51852H19.9049L19.8365 10.063C19.8347 10.2808 19.8903 10.4954 19.9977 10.6859L24.5677 18.7855C21.9933 18.7142 19.4392 18.3147 16.9691 17.597C14.3189 16.8328 11.5803 16.4057 8.82 16.3262L12.0022 10.6859Z" fill="#008E2F"/>
</svg>
