<svg width="27" height="28" viewBox="0 0 27 28" fill="none" xmlns="http://www.w3.org/2000/svg">
<path d="M23.0859 27H3.1485C1.47429 27 0.117188 25.6429 0.117188 23.9687V4.03131C0.117188 2.3571 1.47429 1 3.1485 1H23.0856C24.7598 1 26.1169 2.3571 26.1169 4.03131V23.9684C26.1172 25.6429 24.7601 27 23.0859 27Z" fill="#008E2F" stroke="#008E2F" stroke-width="0.0410935" stroke-miterlimit="10"/>
<path d="M4.1124 5.53125L11.1005 14.8751L4.06836 22.4719H5.65114L11.8079 15.8207L16.7822 22.4719H22.1681L14.7867 12.6026L21.3322 5.53125H19.7495L14.0796 11.6567L9.49829 5.53125H4.1124ZM6.43995 6.6973H8.9142L19.8403 21.3062H17.366L6.43995 6.6973Z" fill="white"/>
</svg>
