<svg width="33" height="26" viewBox="0 0 33 26" fill="none" xmlns="http://www.w3.org/2000/svg">
<path d="M16.0586 25.9997C15.1122 25.9997 6.7443 25.98 4.35531 25.2695C3.4691 25.0058 2.66104 24.4883 2.01221 23.769C1.36338 23.0497 0.896585 22.154 0.65867 21.1715C0.00646554 18.4775 0 13.2229 0 13.0007C0 12.7785 0.00727371 7.52396 0.65867 4.82992C0.897278 3.84764 1.36438 2.95204 2.01326 2.23272C2.66214 1.5134 3.47003 0.995584 4.35611 0.731073C6.7443 0.0206062 15.1122 0 16.0586 0C17.005 0 25.3729 0.0197108 27.7628 0.730177C28.6487 0.9945 29.4565 1.51216 30.1052 2.23134C30.754 2.95052 31.2209 3.846 31.4594 4.82813V4.82902C32.11 7.52306 32.1172 12.7768 32.1172 12.9989C32.1172 13.2211 32.11 18.4757 31.4594 21.1698C31.221 22.1523 30.7539 23.0482 30.1048 23.7675C29.4557 24.4869 28.6475 25.0046 27.7611 25.2686C25.3729 25.9791 17.005 25.9997 16.0586 25.9997Z" fill="#008E2F"/>
<path d="M12.366 18.3587C12.1285 18.3587 11.9008 18.2643 11.7329 18.0963C11.565 17.9283 11.4707 17.7004 11.4707 17.4628V8.54566C11.4702 8.38818 11.5112 8.23335 11.5896 8.09684C11.6681 7.96032 11.7812 7.84696 11.9175 7.76822C12.0537 7.68948 12.2084 7.64816 12.3658 7.64844C12.5231 7.64871 12.6776 7.69057 12.8136 7.76979L20.5301 12.2288C20.6662 12.3074 20.7792 12.4205 20.8577 12.5567C20.9363 12.6929 20.9777 12.8474 20.9777 13.0047C20.9777 13.1619 20.9363 13.3164 20.8577 13.4526C20.7792 13.5888 20.6662 13.7019 20.5301 13.7805L12.8136 18.2395C12.6773 18.3174 12.523 18.3585 12.366 18.3587Z" fill="white"/>
</svg>
